# UnifiedToolkit Phase 16E-R7 review-only token mesh
o Extruded_rounded_square
v 0.72 0.09 -1
v 0.806525 0.09 -0.986296
v 0.88458 0.09 -0.946525
v 0.946525 0.09 -0.88458
v 0.986296 0.09 -0.806525
v 1 0.09 -0.72
v 1 0.09 0.72
v 0.986296 0.09 0.806525
v 0.946525 0.09 0.88458
v 0.88458 0.09 0.946525
v 0.806525 0.09 0.986296
v 0.72 0.09 1
v -0.72 0.09 1
v -0.806525 0.09 0.986296
v -0.88458 0.09 0.946525
v -0.946525 0.09 0.88458
v -0.986296 0.09 0.806525
v -1 0.09 0.72
v -1 0.09 -0.72
v -0.986296 0.09 -0.806525
v -0.946525 0.09 -0.88458
v -0.88458 0.09 -0.946525
v -0.806525 0.09 -0.986296
v -0.72 0.09 -1
v 0.72 -0.09 -1
v 0.806525 -0.09 -0.986296
v 0.88458 -0.09 -0.946525
v 0.946525 -0.09 -0.88458
v 0.986296 -0.09 -0.806525
v 1 -0.09 -0.72
v 1 -0.09 0.72
v 0.986296 -0.09 0.806525
v 0.946525 -0.09 0.88458
v 0.88458 -0.09 0.946525
v 0.806525 -0.09 0.986296
v 0.72 -0.09 1
v -0.72 -0.09 1
v -0.806525 -0.09 0.986296
v -0.88458 -0.09 0.946525
v -0.946525 -0.09 0.88458
v -0.986296 -0.09 0.806525
v -1 -0.09 0.72
v -1 -0.09 -0.72
v -0.986296 -0.09 -0.806525
v -0.946525 -0.09 -0.88458
v -0.88458 -0.09 -0.946525
v -0.806525 -0.09 -0.986296
v -0.72 -0.09 -1
v 0.72 0.09 -1
v 0.72 -0.09 -1
v 0.806525 0.09 -0.986296
v 0.806525 -0.09 -0.986296
v 0.806525 0.09 -0.986296
v 0.806525 -0.09 -0.986296
v 0.88458 0.09 -0.946525
v 0.88458 -0.09 -0.946525
v 0.88458 0.09 -0.946525
v 0.88458 -0.09 -0.946525
v 0.946525 0.09 -0.88458
v 0.946525 -0.09 -0.88458
v 0.946525 0.09 -0.88458
v 0.946525 -0.09 -0.88458
v 0.986296 0.09 -0.806525
v 0.986296 -0.09 -0.806525
v 0.986296 0.09 -0.806525
v 0.986296 -0.09 -0.806525
v 1 0.09 -0.72
v 1 -0.09 -0.72
v 1 0.09 -0.72
v 1 -0.09 -0.72
v 1 0.09 0.72
v 1 -0.09 0.72
v 1 0.09 0.72
v 1 -0.09 0.72
v 0.986296 0.09 0.806525
v 0.986296 -0.09 0.806525
v 0.986296 0.09 0.806525
v 0.986296 -0.09 0.806525
v 0.946525 0.09 0.88458
v 0.946525 -0.09 0.88458
v 0.946525 0.09 0.88458
v 0.946525 -0.09 0.88458
v 0.88458 0.09 0.946525
v 0.88458 -0.09 0.946525
v 0.88458 0.09 0.946525
v 0.88458 -0.09 0.946525
v 0.806525 0.09 0.986296
v 0.806525 -0.09 0.986296
v 0.806525 0.09 0.986296
v 0.806525 -0.09 0.986296
v 0.72 0.09 1
v 0.72 -0.09 1
v 0.72 0.09 1
v 0.72 -0.09 1
v -0.72 0.09 1
v -0.72 -0.09 1
v -0.72 0.09 1
v -0.72 -0.09 1
v -0.806525 0.09 0.986296
v -0.806525 -0.09 0.986296
v -0.806525 0.09 0.986296
v -0.806525 -0.09 0.986296
v -0.88458 0.09 0.946525
v -0.88458 -0.09 0.946525
v -0.88458 0.09 0.946525
v -0.88458 -0.09 0.946525
v -0.946525 0.09 0.88458
v -0.946525 -0.09 0.88458
v -0.946525 0.09 0.88458
v -0.946525 -0.09 0.88458
v -0.986296 0.09 0.806525
v -0.986296 -0.09 0.806525
v -0.986296 0.09 0.806525
v -0.986296 -0.09 0.806525
v -1 0.09 0.72
v -1 -0.09 0.72
v -1 0.09 0.72
v -1 -0.09 0.72
v -1 0.09 -0.72
v -1 -0.09 -0.72
v -1 0.09 -0.72
v -1 -0.09 -0.72
v -0.986296 0.09 -0.806525
v -0.986296 -0.09 -0.806525
v -0.986296 0.09 -0.806525
v -0.986296 -0.09 -0.806525
v -0.946525 0.09 -0.88458
v -0.946525 -0.09 -0.88458
v -0.946525 0.09 -0.88458
v -0.946525 -0.09 -0.88458
v -0.88458 0.09 -0.946525
v -0.88458 -0.09 -0.946525
v -0.88458 0.09 -0.946525
v -0.88458 -0.09 -0.946525
v -0.806525 0.09 -0.986296
v -0.806525 -0.09 -0.986296
v -0.806525 0.09 -0.986296
v -0.806525 -0.09 -0.986296
v -0.72 0.09 -1
v -0.72 -0.09 -1
v -0.72 0.09 -1
v -0.72 -0.09 -1
v 0.72 0.09 -1
v 0.72 -0.09 -1
vt 0.86 0
vt 0.903262 0.006852
vt 0.94229 0.026738
vt 0.973262 0.05771
vt 0.993148 0.096738
vt 1 0.14
vt 1 0.86
vt 0.993148 0.903262
vt 0.973262 0.94229
vt 0.94229 0.973262
vt 0.903262 0.993148
vt 0.86 1
vt 0.14 1
vt 0.096738 0.993148
vt 0.05771 0.973262
vt 0.026738 0.94229
vt 0.006852 0.903262
vt 0 0.86
vt 0 0.14
vt 0.006852 0.096738
vt 0.026738 0.05771
vt 0.05771 0.026738
vt 0.096738 0.006852
vt 0.14 0
vt 0.86 1
vt 0.903262 0.993148
vt 0.94229 0.973262
vt 0.973262 0.94229
vt 0.993148 0.903262
vt 1 0.86
vt 1 0.14
vt 0.993148 0.096738
vt 0.973262 0.05771
vt 0.94229 0.026738
vt 0.903262 0.006852
vt 0.86 0
vt 0.14 0
vt 0.096738 0.006852
vt 0.05771 0.026738
vt 0.026738 0.05771
vt 0.006852 0.096738
vt 0 0.14
vt 0 0.86
vt 0.006852 0.903262
vt 0.026738 0.94229
vt 0.05771 0.973262
vt 0.096738 0.993148
vt 0.14 1
vt 0.08 0.5
vt 0.08 0.5
vt 0.08 0.5
vt 0.08 0.5
vt 0.08 0.5
vt 0.08 0.5
vt 0.08 0.5
vt 0.08 0.5
vt 0.08 0.5
vt 0.08 0.5
vt 0.08 0.5
vt 0.08 0.5
vt 0.08 0.5
vt 0.08 0.5
vt 0.08 0.5
vt 0.08 0.5
vt 0.08 0.5
vt 0.08 0.5
vt 0.08 0.5
vt 0.08 0.5
vt 0.08 0.5
vt 0.08 0.5
vt 0.08 0.5
vt 0.08 0.5
vt 0.08 0.5
vt 0.08 0.5
vt 0.08 0.5
vt 0.08 0.5
vt 0.08 0.5
vt 0.08 0.5
vt 0.08 0.5
vt 0.08 0.5
vt 0.08 0.5
vt 0.08 0.5
vt 0.08 0.5
vt 0.08 0.5
vt 0.08 0.5
vt 0.08 0.5
vt 0.08 0.5
vt 0.08 0.5
vt 0.08 0.5
vt 0.08 0.5
vt 0.08 0.5
vt 0.08 0.5
vt 0.08 0.5
vt 0.08 0.5
vt 0.08 0.5
vt 0.08 0.5
vt 0.08 0.5
vt 0.08 0.5
vt 0.08 0.5
vt 0.08 0.5
vt 0.08 0.5
vt 0.08 0.5
vt 0.08 0.5
vt 0.08 0.5
vt 0.08 0.5
vt 0.08 0.5
vt 0.08 0.5
vt 0.08 0.5
vt 0.08 0.5
vt 0.08 0.5
vt 0.08 0.5
vt 0.08 0.5
vt 0.08 0.5
vt 0.08 0.5
vt 0.08 0.5
vt 0.08 0.5
vt 0.08 0.5
vt 0.08 0.5
vt 0.08 0.5
vt 0.08 0.5
vt 0.08 0.5
vt 0.08 0.5
vt 0.08 0.5
vt 0.08 0.5
vt 0.08 0.5
vt 0.08 0.5
vt 0.08 0.5
vt 0.08 0.5
vt 0.08 0.5
vt 0.08 0.5
vt 0.08 0.5
vt 0.08 0.5
vt 0.08 0.5
vt 0.08 0.5
vt 0.08 0.5
vt 0.08 0.5
vt 0.08 0.5
vt 0.08 0.5
vt 0.08 0.5
vt 0.08 0.5
vt 0.08 0.5
vt 0.08 0.5
vt 0.08 0.5
vt 0.08 0.5
vn 0 1 0
vn 0 -1 0
vn 0.156435 0 -0.987688
vn 0.45399 0 -0.891007
vn 0.707107 0 -0.707107
vn 0.891007 0 -0.45399
vn 0.987688 0 -0.156435
vn 1 0 -0
vn 0.987688 0 0.156435
vn 0.891007 0 0.45399
vn 0.707107 0 0.707107
vn 0.45399 0 0.891007
vn 0.156435 0 0.987688
vn 0 0 1
vn -0.156435 0 0.987688
vn -0.45399 0 0.891007
vn -0.707107 0 0.707107
vn -0.891007 0 0.45399
vn -0.987688 0 0.156435
vn -1 0 -0
vn -0.987688 0 -0.156435
vn -0.891007 0 -0.45399
vn -0.707107 0 -0.707107
vn -0.45399 0 -0.891007
vn -0.156435 0 -0.987688
vn 0 0 -1
f 1/1/1 3/3/1 2/2/1
f 1/1/1 4/4/1 3/3/1
f 1/1/1 5/5/1 4/4/1
f 1/1/1 6/6/1 5/5/1
f 1/1/1 7/7/1 6/6/1
f 1/1/1 8/8/1 7/7/1
f 1/1/1 9/9/1 8/8/1
f 1/1/1 10/10/1 9/9/1
f 1/1/1 11/11/1 10/10/1
f 1/1/1 12/12/1 11/11/1
f 1/1/1 13/13/1 12/12/1
f 1/1/1 14/14/1 13/13/1
f 1/1/1 15/15/1 14/14/1
f 1/1/1 16/16/1 15/15/1
f 1/1/1 17/17/1 16/16/1
f 1/1/1 18/18/1 17/17/1
f 1/1/1 19/19/1 18/18/1
f 1/1/1 20/20/1 19/19/1
f 1/1/1 21/21/1 20/20/1
f 1/1/1 22/22/1 21/21/1
f 1/1/1 23/23/1 22/22/1
f 1/1/1 24/24/1 23/23/1
f 25/25/2 26/26/2 27/27/2
f 25/25/2 27/27/2 28/28/2
f 25/25/2 28/28/2 29/29/2
f 25/25/2 29/29/2 30/30/2
f 25/25/2 30/30/2 31/31/2
f 25/25/2 31/31/2 32/32/2
f 25/25/2 32/32/2 33/33/2
f 25/25/2 33/33/2 34/34/2
f 25/25/2 34/34/2 35/35/2
f 25/25/2 35/35/2 36/36/2
f 25/25/2 36/36/2 37/37/2
f 25/25/2 37/37/2 38/38/2
f 25/25/2 38/38/2 39/39/2
f 25/25/2 39/39/2 40/40/2
f 25/25/2 40/40/2 41/41/2
f 25/25/2 41/41/2 42/42/2
f 25/25/2 42/42/2 43/43/2
f 25/25/2 43/43/2 44/44/2
f 25/25/2 44/44/2 45/45/2
f 25/25/2 45/45/2 46/46/2
f 25/25/2 46/46/2 47/47/2
f 25/25/2 47/47/2 48/48/2
f 49/49/3 51/51/3 52/52/3 50/50/3
f 53/53/4 55/55/4 56/56/4 54/54/4
f 57/57/5 59/59/5 60/60/5 58/58/5
f 61/61/6 63/63/6 64/64/6 62/62/6
f 65/65/7 67/67/7 68/68/7 66/66/7
f 69/69/8 71/71/8 72/72/8 70/70/8
f 73/73/9 75/75/9 76/76/9 74/74/9
f 77/77/10 79/79/10 80/80/10 78/78/10
f 81/81/11 83/83/11 84/84/11 82/82/11
f 85/85/12 87/87/12 88/88/12 86/86/12
f 89/89/13 91/91/13 92/92/13 90/90/13
f 93/93/14 95/95/14 96/96/14 94/94/14
f 97/97/15 99/99/15 100/100/15 98/98/15
f 101/101/16 103/103/16 104/104/16 102/102/16
f 105/105/17 107/107/17 108/108/17 106/106/17
f 109/109/18 111/111/18 112/112/18 110/110/18
f 113/113/19 115/115/19 116/116/19 114/114/19
f 117/117/20 119/119/20 120/120/20 118/118/20
f 121/121/21 123/123/21 124/124/21 122/122/21
f 125/125/22 127/127/22 128/128/22 126/126/22
f 129/129/23 131/131/23 132/132/23 130/130/23
f 133/133/24 135/135/24 136/136/24 134/134/24
f 137/137/25 139/139/25 140/140/25 138/138/25
f 141/141/26 143/143/26 144/144/26 142/142/26
