# UnifiedToolkit Phase 16E-R7 review-only token mesh
o Extruded_round
v 0 0.09 -1
v 0.19509 0.09 -0.980785
v 0.382683 0.09 -0.92388
v 0.55557 0.09 -0.83147
v 0.707107 0.09 -0.707107
v 0.83147 0.09 -0.55557
v 0.92388 0.09 -0.382683
v 0.980785 0.09 -0.19509
v 1 0.09 0
v 0.980785 0.09 0.19509
v 0.92388 0.09 0.382683
v 0.83147 0.09 0.55557
v 0.707107 0.09 0.707107
v 0.55557 0.09 0.83147
v 0.382683 0.09 0.92388
v 0.19509 0.09 0.980785
v 0 0.09 1
v -0.19509 0.09 0.980785
v -0.382683 0.09 0.92388
v -0.55557 0.09 0.83147
v -0.707107 0.09 0.707107
v -0.83147 0.09 0.55557
v -0.92388 0.09 0.382683
v -0.980785 0.09 0.19509
v -1 0.09 0
v -0.980785 0.09 -0.19509
v -0.92388 0.09 -0.382683
v -0.83147 0.09 -0.55557
v -0.707107 0.09 -0.707107
v -0.55557 0.09 -0.83147
v -0.382683 0.09 -0.92388
v -0.19509 0.09 -0.980785
v 0 -0.09 -1
v 0.19509 -0.09 -0.980785
v 0.382683 -0.09 -0.92388
v 0.55557 -0.09 -0.83147
v 0.707107 -0.09 -0.707107
v 0.83147 -0.09 -0.55557
v 0.92388 -0.09 -0.382683
v 0.980785 -0.09 -0.19509
v 1 -0.09 0
v 0.980785 -0.09 0.19509
v 0.92388 -0.09 0.382683
v 0.83147 -0.09 0.55557
v 0.707107 -0.09 0.707107
v 0.55557 -0.09 0.83147
v 0.382683 -0.09 0.92388
v 0.19509 -0.09 0.980785
v 0 -0.09 1
v -0.19509 -0.09 0.980785
v -0.382683 -0.09 0.92388
v -0.55557 -0.09 0.83147
v -0.707107 -0.09 0.707107
v -0.83147 -0.09 0.55557
v -0.92388 -0.09 0.382683
v -0.980785 -0.09 0.19509
v -1 -0.09 0
v -0.980785 -0.09 -0.19509
v -0.92388 -0.09 -0.382683
v -0.83147 -0.09 -0.55557
v -0.707107 -0.09 -0.707107
v -0.55557 -0.09 -0.83147
v -0.382683 -0.09 -0.92388
v -0.19509 -0.09 -0.980785
v 0 0.09 -1
v 0 -0.09 -1
v 0.19509 0.09 -0.980785
v 0.19509 -0.09 -0.980785
v 0.19509 0.09 -0.980785
v 0.19509 -0.09 -0.980785
v 0.382683 0.09 -0.92388
v 0.382683 -0.09 -0.92388
v 0.382683 0.09 -0.92388
v 0.382683 -0.09 -0.92388
v 0.55557 0.09 -0.83147
v 0.55557 -0.09 -0.83147
v 0.55557 0.09 -0.83147
v 0.55557 -0.09 -0.83147
v 0.707107 0.09 -0.707107
v 0.707107 -0.09 -0.707107
v 0.707107 0.09 -0.707107
v 0.707107 -0.09 -0.707107
v 0.83147 0.09 -0.55557
v 0.83147 -0.09 -0.55557
v 0.83147 0.09 -0.55557
v 0.83147 -0.09 -0.55557
v 0.92388 0.09 -0.382683
v 0.92388 -0.09 -0.382683
v 0.92388 0.09 -0.382683
v 0.92388 -0.09 -0.382683
v 0.980785 0.09 -0.19509
v 0.980785 -0.09 -0.19509
v 0.980785 0.09 -0.19509
v 0.980785 -0.09 -0.19509
v 1 0.09 0
v 1 -0.09 0
v 1 0.09 0
v 1 -0.09 0
v 0.980785 0.09 0.19509
v 0.980785 -0.09 0.19509
v 0.980785 0.09 0.19509
v 0.980785 -0.09 0.19509
v 0.92388 0.09 0.382683
v 0.92388 -0.09 0.382683
v 0.92388 0.09 0.382683
v 0.92388 -0.09 0.382683
v 0.83147 0.09 0.55557
v 0.83147 -0.09 0.55557
v 0.83147 0.09 0.55557
v 0.83147 -0.09 0.55557
v 0.707107 0.09 0.707107
v 0.707107 -0.09 0.707107
v 0.707107 0.09 0.707107
v 0.707107 -0.09 0.707107
v 0.55557 0.09 0.83147
v 0.55557 -0.09 0.83147
v 0.55557 0.09 0.83147
v 0.55557 -0.09 0.83147
v 0.382683 0.09 0.92388
v 0.382683 -0.09 0.92388
v 0.382683 0.09 0.92388
v 0.382683 -0.09 0.92388
v 0.19509 0.09 0.980785
v 0.19509 -0.09 0.980785
v 0.19509 0.09 0.980785
v 0.19509 -0.09 0.980785
v 0 0.09 1
v 0 -0.09 1
v 0 0.09 1
v 0 -0.09 1
v -0.19509 0.09 0.980785
v -0.19509 -0.09 0.980785
v -0.19509 0.09 0.980785
v -0.19509 -0.09 0.980785
v -0.382683 0.09 0.92388
v -0.382683 -0.09 0.92388
v -0.382683 0.09 0.92388
v -0.382683 -0.09 0.92388
v -0.55557 0.09 0.83147
v -0.55557 -0.09 0.83147
v -0.55557 0.09 0.83147
v -0.55557 -0.09 0.83147
v -0.707107 0.09 0.707107
v -0.707107 -0.09 0.707107
v -0.707107 0.09 0.707107
v -0.707107 -0.09 0.707107
v -0.83147 0.09 0.55557
v -0.83147 -0.09 0.55557
v -0.83147 0.09 0.55557
v -0.83147 -0.09 0.55557
v -0.92388 0.09 0.382683
v -0.92388 -0.09 0.382683
v -0.92388 0.09 0.382683
v -0.92388 -0.09 0.382683
v -0.980785 0.09 0.19509
v -0.980785 -0.09 0.19509
v -0.980785 0.09 0.19509
v -0.980785 -0.09 0.19509
v -1 0.09 0
v -1 -0.09 0
v -1 0.09 0
v -1 -0.09 0
v -0.980785 0.09 -0.19509
v -0.980785 -0.09 -0.19509
v -0.980785 0.09 -0.19509
v -0.980785 -0.09 -0.19509
v -0.92388 0.09 -0.382683
v -0.92388 -0.09 -0.382683
v -0.92388 0.09 -0.382683
v -0.92388 -0.09 -0.382683
v -0.83147 0.09 -0.55557
v -0.83147 -0.09 -0.55557
v -0.83147 0.09 -0.55557
v -0.83147 -0.09 -0.55557
v -0.707107 0.09 -0.707107
v -0.707107 -0.09 -0.707107
v -0.707107 0.09 -0.707107
v -0.707107 -0.09 -0.707107
v -0.55557 0.09 -0.83147
v -0.55557 -0.09 -0.83147
v -0.55557 0.09 -0.83147
v -0.55557 -0.09 -0.83147
v -0.382683 0.09 -0.92388
v -0.382683 -0.09 -0.92388
v -0.382683 0.09 -0.92388
v -0.382683 -0.09 -0.92388
v -0.19509 0.09 -0.980785
v -0.19509 -0.09 -0.980785
v -0.19509 0.09 -0.980785
v -0.19509 -0.09 -0.980785
v 0 0.09 -1
v 0 -0.09 -1
vt 0.5 0
vt 0.597545 0.009607
vt 0.691342 0.03806
vt 0.777785 0.084265
vt 0.853553 0.146447
vt 0.915735 0.222215
vt 0.96194 0.308658
vt 0.990393 0.402455
vt 1 0.5
vt 0.990393 0.597545
vt 0.96194 0.691342
vt 0.915735 0.777785
vt 0.853553 0.853553
vt 0.777785 0.915735
vt 0.691342 0.96194
vt 0.597545 0.990393
vt 0.5 1
vt 0.402455 0.990393
vt 0.308658 0.96194
vt 0.222215 0.915735
vt 0.146447 0.853553
vt 0.084265 0.777785
vt 0.03806 0.691342
vt 0.009607 0.597545
vt 0 0.5
vt 0.009607 0.402455
vt 0.03806 0.308658
vt 0.084265 0.222215
vt 0.146447 0.146447
vt 0.222215 0.084265
vt 0.308658 0.03806
vt 0.402455 0.009607
vt 0.5 1
vt 0.597545 0.990393
vt 0.691342 0.96194
vt 0.777785 0.915735
vt 0.853553 0.853553
vt 0.915735 0.777785
vt 0.96194 0.691342
vt 0.990393 0.597545
vt 1 0.5
vt 0.990393 0.402455
vt 0.96194 0.308658
vt 0.915735 0.222215
vt 0.853553 0.146447
vt 0.777785 0.084265
vt 0.691342 0.03806
vt 0.597545 0.009607
vt 0.5 0
vt 0.402455 0.009607
vt 0.308658 0.03806
vt 0.222215 0.084265
vt 0.146447 0.146447
vt 0.084265 0.222215
vt 0.03806 0.308658
vt 0.009607 0.402455
vt 0 0.5
vt 0.009607 0.597545
vt 0.03806 0.691342
vt 0.084265 0.777785
vt 0.146447 0.853553
vt 0.222215 0.915735
vt 0.308658 0.96194
vt 0.402455 0.990393
vt 0.08 0.5
vt 0.08 0.5
vt 0.08 0.5
vt 0.08 0.5
vt 0.08 0.5
vt 0.08 0.5
vt 0.08 0.5
vt 0.08 0.5
vt 0.08 0.5
vt 0.08 0.5
vt 0.08 0.5
vt 0.08 0.5
vt 0.08 0.5
vt 0.08 0.5
vt 0.08 0.5
vt 0.08 0.5
vt 0.08 0.5
vt 0.08 0.5
vt 0.08 0.5
vt 0.08 0.5
vt 0.08 0.5
vt 0.08 0.5
vt 0.08 0.5
vt 0.08 0.5
vt 0.08 0.5
vt 0.08 0.5
vt 0.08 0.5
vt 0.08 0.5
vt 0.08 0.5
vt 0.08 0.5
vt 0.08 0.5
vt 0.08 0.5
vt 0.08 0.5
vt 0.08 0.5
vt 0.08 0.5
vt 0.08 0.5
vt 0.08 0.5
vt 0.08 0.5
vt 0.08 0.5
vt 0.08 0.5
vt 0.08 0.5
vt 0.08 0.5
vt 0.08 0.5
vt 0.08 0.5
vt 0.08 0.5
vt 0.08 0.5
vt 0.08 0.5
vt 0.08 0.5
vt 0.08 0.5
vt 0.08 0.5
vt 0.08 0.5
vt 0.08 0.5
vt 0.08 0.5
vt 0.08 0.5
vt 0.08 0.5
vt 0.08 0.5
vt 0.08 0.5
vt 0.08 0.5
vt 0.08 0.5
vt 0.08 0.5
vt 0.08 0.5
vt 0.08 0.5
vt 0.08 0.5
vt 0.08 0.5
vt 0.08 0.5
vt 0.08 0.5
vt 0.08 0.5
vt 0.08 0.5
vt 0.08 0.5
vt 0.08 0.5
vt 0.08 0.5
vt 0.08 0.5
vt 0.08 0.5
vt 0.08 0.5
vt 0.08 0.5
vt 0.08 0.5
vt 0.08 0.5
vt 0.08 0.5
vt 0.08 0.5
vt 0.08 0.5
vt 0.08 0.5
vt 0.08 0.5
vt 0.08 0.5
vt 0.08 0.5
vt 0.08 0.5
vt 0.08 0.5
vt 0.08 0.5
vt 0.08 0.5
vt 0.08 0.5
vt 0.08 0.5
vt 0.08 0.5
vt 0.08 0.5
vt 0.08 0.5
vt 0.08 0.5
vt 0.08 0.5
vt 0.08 0.5
vt 0.08 0.5
vt 0.08 0.5
vt 0.08 0.5
vt 0.08 0.5
vt 0.08 0.5
vt 0.08 0.5
vt 0.08 0.5
vt 0.08 0.5
vt 0.08 0.5
vt 0.08 0.5
vt 0.08 0.5
vt 0.08 0.5
vt 0.08 0.5
vt 0.08 0.5
vt 0.08 0.5
vt 0.08 0.5
vt 0.08 0.5
vt 0.08 0.5
vt 0.08 0.5
vt 0.08 0.5
vt 0.08 0.5
vt 0.08 0.5
vt 0.08 0.5
vt 0.08 0.5
vt 0.08 0.5
vt 0.08 0.5
vt 0.08 0.5
vt 0.08 0.5
vt 0.08 0.5
vt 0.08 0.5
vt 0.08 0.5
vt 0.08 0.5
vn 0 1 0
vn 0 -1 0
vn 0.098017 0 -0.995185
vn 0.290285 0 -0.95694
vn 0.471397 0 -0.881921
vn 0.634393 0 -0.77301
vn 0.77301 0 -0.634393
vn 0.881921 0 -0.471397
vn 0.95694 0 -0.290285
vn 0.995185 0 -0.098017
vn 0.995185 0 0.098017
vn 0.95694 0 0.290285
vn 0.881921 0 0.471397
vn 0.77301 0 0.634393
vn 0.634393 0 0.77301
vn 0.471397 0 0.881921
vn 0.290285 0 0.95694
vn 0.098017 0 0.995185
vn -0.098017 0 0.995185
vn -0.290285 0 0.95694
vn -0.471397 0 0.881921
vn -0.634393 0 0.77301
vn -0.77301 0 0.634393
vn -0.881921 0 0.471397
vn -0.95694 0 0.290285
vn -0.995185 0 0.098017
vn -0.995185 0 -0.098017
vn -0.95694 0 -0.290285
vn -0.881921 0 -0.471397
vn -0.77301 0 -0.634393
vn -0.634393 0 -0.77301
vn -0.471397 0 -0.881921
vn -0.290285 0 -0.95694
vn -0.098017 0 -0.995185
f 1/1/1 3/3/1 2/2/1
f 1/1/1 4/4/1 3/3/1
f 1/1/1 5/5/1 4/4/1
f 1/1/1 6/6/1 5/5/1
f 1/1/1 7/7/1 6/6/1
f 1/1/1 8/8/1 7/7/1
f 1/1/1 9/9/1 8/8/1
f 1/1/1 10/10/1 9/9/1
f 1/1/1 11/11/1 10/10/1
f 1/1/1 12/12/1 11/11/1
f 1/1/1 13/13/1 12/12/1
f 1/1/1 14/14/1 13/13/1
f 1/1/1 15/15/1 14/14/1
f 1/1/1 16/16/1 15/15/1
f 1/1/1 17/17/1 16/16/1
f 1/1/1 18/18/1 17/17/1
f 1/1/1 19/19/1 18/18/1
f 1/1/1 20/20/1 19/19/1
f 1/1/1 21/21/1 20/20/1
f 1/1/1 22/22/1 21/21/1
f 1/1/1 23/23/1 22/22/1
f 1/1/1 24/24/1 23/23/1
f 1/1/1 25/25/1 24/24/1
f 1/1/1 26/26/1 25/25/1
f 1/1/1 27/27/1 26/26/1
f 1/1/1 28/28/1 27/27/1
f 1/1/1 29/29/1 28/28/1
f 1/1/1 30/30/1 29/29/1
f 1/1/1 31/31/1 30/30/1
f 1/1/1 32/32/1 31/31/1
f 33/33/2 34/34/2 35/35/2
f 33/33/2 35/35/2 36/36/2
f 33/33/2 36/36/2 37/37/2
f 33/33/2 37/37/2 38/38/2
f 33/33/2 38/38/2 39/39/2
f 33/33/2 39/39/2 40/40/2
f 33/33/2 40/40/2 41/41/2
f 33/33/2 41/41/2 42/42/2
f 33/33/2 42/42/2 43/43/2
f 33/33/2 43/43/2 44/44/2
f 33/33/2 44/44/2 45/45/2
f 33/33/2 45/45/2 46/46/2
f 33/33/2 46/46/2 47/47/2
f 33/33/2 47/47/2 48/48/2
f 33/33/2 48/48/2 49/49/2
f 33/33/2 49/49/2 50/50/2
f 33/33/2 50/50/2 51/51/2
f 33/33/2 51/51/2 52/52/2
f 33/33/2 52/52/2 53/53/2
f 33/33/2 53/53/2 54/54/2
f 33/33/2 54/54/2 55/55/2
f 33/33/2 55/55/2 56/56/2
f 33/33/2 56/56/2 57/57/2
f 33/33/2 57/57/2 58/58/2
f 33/33/2 58/58/2 59/59/2
f 33/33/2 59/59/2 60/60/2
f 33/33/2 60/60/2 61/61/2
f 33/33/2 61/61/2 62/62/2
f 33/33/2 62/62/2 63/63/2
f 33/33/2 63/63/2 64/64/2
f 65/65/3 67/67/3 68/68/3 66/66/3
f 69/69/4 71/71/4 72/72/4 70/70/4
f 73/73/5 75/75/5 76/76/5 74/74/5
f 77/77/6 79/79/6 80/80/6 78/78/6
f 81/81/7 83/83/7 84/84/7 82/82/7
f 85/85/8 87/87/8 88/88/8 86/86/8
f 89/89/9 91/91/9 92/92/9 90/90/9
f 93/93/10 95/95/10 96/96/10 94/94/10
f 97/97/11 99/99/11 100/100/11 98/98/11
f 101/101/12 103/103/12 104/104/12 102/102/12
f 105/105/13 107/107/13 108/108/13 106/106/13
f 109/109/14 111/111/14 112/112/14 110/110/14
f 113/113/15 115/115/15 116/116/15 114/114/15
f 117/117/16 119/119/16 120/120/16 118/118/16
f 121/121/17 123/123/17 124/124/17 122/122/17
f 125/125/18 127/127/18 128/128/18 126/126/18
f 129/129/19 131/131/19 132/132/19 130/130/19
f 133/133/20 135/135/20 136/136/20 134/134/20
f 137/137/21 139/139/21 140/140/21 138/138/21
f 141/141/22 143/143/22 144/144/22 142/142/22
f 145/145/23 147/147/23 148/148/23 146/146/23
f 149/149/24 151/151/24 152/152/24 150/150/24
f 153/153/25 155/155/25 156/156/25 154/154/25
f 157/157/26 159/159/26 160/160/26 158/158/26
f 161/161/27 163/163/27 164/164/27 162/162/27
f 165/165/28 167/167/28 168/168/28 166/166/28
f 169/169/29 171/171/29 172/172/29 170/170/29
f 173/173/30 175/175/30 176/176/30 174/174/30
f 177/177/31 179/179/31 180/180/31 178/178/31
f 181/181/32 183/183/32 184/184/32 182/182/32
f 185/185/33 187/187/33 188/188/33 186/186/33
f 189/189/34 191/191/34 192/192/34 190/190/34
