# UnifiedToolkit Phase 16E-R7 convex review collider
o Extruded_round_collider
v 0 0.09 -1
v 0.382683 0.09 -0.92388
v 0.707107 0.09 -0.707107
v 0.92388 0.09 -0.382683
v 1 0.09 0
v 0.92388 0.09 0.382683
v 0.707107 0.09 0.707107
v 0.382683 0.09 0.92388
v 0 0.09 1
v -0.382683 0.09 0.92388
v -0.707107 0.09 0.707107
v -0.92388 0.09 0.382683
v -1 0.09 0
v -0.92388 0.09 -0.382683
v -0.707107 0.09 -0.707107
v -0.382683 0.09 -0.92388
v 0 -0.09 -1
v 0.382683 -0.09 -0.92388
v 0.707107 -0.09 -0.707107
v 0.92388 -0.09 -0.382683
v 1 -0.09 0
v 0.92388 -0.09 0.382683
v 0.707107 -0.09 0.707107
v 0.382683 -0.09 0.92388
v 0 -0.09 1
v -0.382683 -0.09 0.92388
v -0.707107 -0.09 0.707107
v -0.92388 -0.09 0.382683
v -1 -0.09 0
v -0.92388 -0.09 -0.382683
v -0.707107 -0.09 -0.707107
v -0.382683 -0.09 -0.92388
f 1 3 2
f 1 4 3
f 1 5 4
f 1 6 5
f 1 7 6
f 1 8 7
f 1 9 8
f 1 10 9
f 1 11 10
f 1 12 11
f 1 13 12
f 1 14 13
f 1 15 14
f 1 16 15
f 17 18 19
f 17 19 20
f 17 20 21
f 17 21 22
f 17 22 23
f 17 23 24
f 17 24 25
f 17 25 26
f 17 26 27
f 17 27 28
f 17 28 29
f 17 29 30
f 17 30 31
f 17 31 32
f 1 2 18 17
f 2 3 19 18
f 3 4 20 19
f 4 5 21 20
f 5 6 22 21
f 6 7 23 22
f 7 8 24 23
f 8 9 25 24
f 9 10 26 25
f 10 11 27 26
f 11 12 28 27
f 12 13 29 28
f 13 14 30 29
f 14 15 31 30
f 15 16 32 31
f 16 1 17 32
