# UnifiedToolkit Phase 16E-R7 convex review collider
o Extruded_rounded_square_collider
v 0.72 0.09 -1
v 0.91799 0.09 -0.91799
v 1 0.09 -0.72
v 1 0.09 0.72
v 0.91799 0.09 0.91799
v 0.72 0.09 1
v -0.72 0.09 1
v -0.91799 0.09 0.91799
v -1 0.09 0.72
v -1 0.09 -0.72
v -0.91799 0.09 -0.91799
v -0.72 0.09 -1
v 0.72 -0.09 -1
v 0.91799 -0.09 -0.91799
v 1 -0.09 -0.72
v 1 -0.09 0.72
v 0.91799 -0.09 0.91799
v 0.72 -0.09 1
v -0.72 -0.09 1
v -0.91799 -0.09 0.91799
v -1 -0.09 0.72
v -1 -0.09 -0.72
v -0.91799 -0.09 -0.91799
v -0.72 -0.09 -1
f 1 3 2
f 1 4 3
f 1 5 4
f 1 6 5
f 1 7 6
f 1 8 7
f 1 9 8
f 1 10 9
f 1 11 10
f 1 12 11
f 13 14 15
f 13 15 16
f 13 16 17
f 13 17 18
f 13 18 19
f 13 19 20
f 13 20 21
f 13 21 22
f 13 22 23
f 13 23 24
f 1 2 14 13
f 2 3 15 14
f 3 4 16 15
f 4 5 17 16
f 5 6 18 17
f 6 7 19 18
f 7 8 20 19
f 8 9 21 20
f 9 10 22 21
f 10 11 23 22
f 11 12 24 23
f 12 1 13 24
