# UnifiedToolkit Phase 16E-R7 review-only token mesh
o Triangular_Stress
v -0.82 0.09 -0.68
v 0.82 0.09 -0.68
v 0.95 0.09 -0.48
v 0.16 0.09 0.92
v -0.16 0.09 0.92
v -0.95 0.09 -0.48
v -0.82 -0.09 -0.68
v 0.82 -0.09 -0.68
v 0.95 -0.09 -0.48
v 0.16 -0.09 0.92
v -0.16 -0.09 0.92
v -0.95 -0.09 -0.48
v -0.82 0.09 -0.68
v -0.82 -0.09 -0.68
v 0.82 0.09 -0.68
v 0.82 -0.09 -0.68
v 0.82 0.09 -0.68
v 0.82 -0.09 -0.68
v 0.95 0.09 -0.48
v 0.95 -0.09 -0.48
v 0.95 0.09 -0.48
v 0.95 -0.09 -0.48
v 0.16 0.09 0.92
v 0.16 -0.09 0.92
v 0.16 0.09 0.92
v 0.16 -0.09 0.92
v -0.16 0.09 0.92
v -0.16 -0.09 0.92
v -0.16 0.09 0.92
v -0.16 -0.09 0.92
v -0.95 0.09 -0.48
v -0.95 -0.09 -0.48
v -0.95 0.09 -0.48
v -0.95 -0.09 -0.48
v -0.82 0.09 -0.68
v -0.82 -0.09 -0.68
vt 0.09 0.16
vt 0.91 0.16
vt 0.975 0.26
vt 0.58 0.96
vt 0.42 0.96
vt 0.025 0.26
vt 0.09 0.84
vt 0.91 0.84
vt 0.975 0.74
vt 0.58 0.04
vt 0.42 0.04
vt 0.025 0.74
vt 0.08 0.5
vt 0.08 0.5
vt 0.08 0.5
vt 0.08 0.5
vt 0.08 0.5
vt 0.08 0.5
vt 0.08 0.5
vt 0.08 0.5
vt 0.08 0.5
vt 0.08 0.5
vt 0.08 0.5
vt 0.08 0.5
vt 0.08 0.5
vt 0.08 0.5
vt 0.08 0.5
vt 0.08 0.5
vt 0.08 0.5
vt 0.08 0.5
vt 0.08 0.5
vt 0.08 0.5
vt 0.08 0.5
vt 0.08 0.5
vt 0.08 0.5
vt 0.08 0.5
vn 0 1 0
vn 0 -1 0
vn 0 0 -1
vn 0.838444 0 -0.544988
vn 0.87091 0 0.491442
vn 0 0 1
vn -0.87091 0 0.491442
vn -0.838444 0 -0.544988
f 1/1/1 3/3/1 2/2/1
f 1/1/1 4/4/1 3/3/1
f 1/1/1 5/5/1 4/4/1
f 1/1/1 6/6/1 5/5/1
f 7/7/2 8/8/2 9/9/2
f 7/7/2 9/9/2 10/10/2
f 7/7/2 10/10/2 11/11/2
f 7/7/2 11/11/2 12/12/2
f 13/13/3 15/15/3 16/16/3 14/14/3
f 17/17/4 19/19/4 20/20/4 18/18/4
f 21/21/5 23/23/5 24/24/5 22/22/5
f 25/25/6 27/27/6 28/28/6 26/26/6
f 29/29/7 31/31/7 32/32/7 30/30/7
f 33/33/8 35/35/8 36/36/8 34/34/8
