# UnifiedToolkit Phase 16E-R7 review-only token mesh
o Chamfered_square_Ordnance
v -0.68 0.09 -1
v 0.68 0.09 -1
v 1 0.09 -0.68
v 1 0.09 0.68
v 0.68 0.09 1
v -0.68 0.09 1
v -1 0.09 0.68
v -1 0.09 -0.68
v -0.68 -0.09 -1
v 0.68 -0.09 -1
v 1 -0.09 -0.68
v 1 -0.09 0.68
v 0.68 -0.09 1
v -0.68 -0.09 1
v -1 -0.09 0.68
v -1 -0.09 -0.68
v -0.68 0.09 -1
v -0.68 -0.09 -1
v 0.68 0.09 -1
v 0.68 -0.09 -1
v 0.68 0.09 -1
v 0.68 -0.09 -1
v 1 0.09 -0.68
v 1 -0.09 -0.68
v 1 0.09 -0.68
v 1 -0.09 -0.68
v 1 0.09 0.68
v 1 -0.09 0.68
v 1 0.09 0.68
v 1 -0.09 0.68
v 0.68 0.09 1
v 0.68 -0.09 1
v 0.68 0.09 1
v 0.68 -0.09 1
v -0.68 0.09 1
v -0.68 -0.09 1
v -0.68 0.09 1
v -0.68 -0.09 1
v -1 0.09 0.68
v -1 -0.09 0.68
v -1 0.09 0.68
v -1 -0.09 0.68
v -1 0.09 -0.68
v -1 -0.09 -0.68
v -1 0.09 -0.68
v -1 -0.09 -0.68
v -0.68 0.09 -1
v -0.68 -0.09 -1
vt 0.16 0
vt 0.84 0
vt 1 0.16
vt 1 0.84
vt 0.84 1
vt 0.16 1
vt 0 0.84
vt 0 0.16
vt 0.16 1
vt 0.84 1
vt 1 0.84
vt 1 0.16
vt 0.84 0
vt 0.16 0
vt 0 0.16
vt 0 0.84
vt 0.08 0.5
vt 0.08 0.5
vt 0.08 0.5
vt 0.08 0.5
vt 0.08 0.5
vt 0.08 0.5
vt 0.08 0.5
vt 0.08 0.5
vt 0.08 0.5
vt 0.08 0.5
vt 0.08 0.5
vt 0.08 0.5
vt 0.08 0.5
vt 0.08 0.5
vt 0.08 0.5
vt 0.08 0.5
vt 0.08 0.5
vt 0.08 0.5
vt 0.08 0.5
vt 0.08 0.5
vt 0.08 0.5
vt 0.08 0.5
vt 0.08 0.5
vt 0.08 0.5
vt 0.08 0.5
vt 0.08 0.5
vt 0.08 0.5
vt 0.08 0.5
vt 0.08 0.5
vt 0.08 0.5
vt 0.08 0.5
vt 0.08 0.5
vn 0 1 0
vn 0 -1 0
vn 0 0 -1
vn 0.707107 0 -0.707107
vn 1 0 -0
vn 0.707107 0 0.707107
vn 0 0 1
vn -0.707107 0 0.707107
vn -1 0 -0
vn -0.707107 0 -0.707107
f 1/1/1 3/3/1 2/2/1
f 1/1/1 4/4/1 3/3/1
f 1/1/1 5/5/1 4/4/1
f 1/1/1 6/6/1 5/5/1
f 1/1/1 7/7/1 6/6/1
f 1/1/1 8/8/1 7/7/1
f 9/9/2 10/10/2 11/11/2
f 9/9/2 11/11/2 12/12/2
f 9/9/2 12/12/2 13/13/2
f 9/9/2 13/13/2 14/14/2
f 9/9/2 14/14/2 15/15/2
f 9/9/2 15/15/2 16/16/2
f 17/17/3 19/19/3 20/20/3 18/18/3
f 21/21/4 23/23/4 24/24/4 22/22/4
f 25/25/5 27/27/5 28/28/5 26/26/5
f 29/29/6 31/31/6 32/32/6 30/30/6
f 33/33/7 35/35/7 36/36/7 34/34/7
f 37/37/8 39/39/8 40/40/8 38/38/8
f 41/41/9 43/43/9 44/44/9 42/42/9
f 45/45/10 47/47/10 48/48/10 46/46/10
