# Phase 16E-R13 R2: Critical Hit side UVs constrained to an interior cardboard strip.
# UnifiedToolkit Phase 16E-R13 review mesh; geometry unchanged, UVs remapped to high-resolution scan.
# Exported from Wings 3D 1.5.3
mtllib crit.mtl
o Cylinder1
#54 vertices, 104 faces
v 1.05000000 0.10000000 0.0000000e+0
v 0.52500000 0.10000000 0.90932667
v -0.52500000 0.10000000 0.90932667
v -1.05000000 0.10000000 1.2858791e-16
v -0.52500000 0.10000000 -0.90932667
v 0.52500000 0.10000000 -0.90932667
v 1.05000000 -0.10000000 0.0000000e+0
v 0.52500000 -0.10000000 0.90932667
v -0.52500000 -0.10000000 0.90932667
v -1.05000000 -0.10000000 1.2858791e-16
v -0.52500000 -0.10000000 -0.90932667
v 0.52500000 -0.10000000 -0.90932667
v 0.0000000e+0 0.10000000 0.90932667
v 0.52500000 0.10000000 0.0000000e+0
v -0.52500000 0.10000000 0.0000000e+0
v 0.0000000e+0 0.10000000 -0.90932667
v 6.9388939e-18 0.10000000 0.0000000e+0
v 0.26250000 0.10000000 0.90932667
v 0.52500000 0.10000000 0.45466334
v -0.52500000 0.10000000 0.45466334
v -0.26250000 0.10000000 -0.90932667
v -0.26250000 0.10000000 0.90932667
v 0.52500000 0.10000000 -0.45466334
v -0.52500000 0.10000000 -0.45466334
v 0.26250000 0.10000000 -0.90932667
v -0.26250000 0.10000000 0.0000000e+0
v 0.0000000e+0 0.10000000 -0.45466334
v 0.26250000 0.10000000 0.0000000e+0
v 0.0000000e+0 0.10000000 0.45466334
v -0.26250000 0.10000000 -0.45466334
v 0.26250000 0.10000000 -0.45466334
v 0.26250000 0.10000000 0.45466334
v -0.26250000 0.10000000 0.45466334
v 0.0000000e+0 -0.10000000 0.90932667
v 0.52500000 -0.10000000 0.0000000e+0
v -0.52500000 -0.10000000 0.0000000e+0
v 0.0000000e+0 -0.10000000 -0.90932667
v 6.9388939e-18 -0.10000000 0.0000000e+0
v 0.26250000 -0.10000000 0.90932667
v 0.52500000 -0.10000000 0.45466334
v -0.52500000 -0.10000000 0.45466334
v -0.26250000 -0.10000000 -0.90932667
v -0.26250000 -0.10000000 0.90932667
v 0.52500000 -0.10000000 -0.45466334
v -0.52500000 -0.10000000 -0.45466334
v 0.26250000 -0.10000000 -0.90932667
v 0.0000000e+0 -0.10000000 0.45466334
v 0.26250000 -0.10000000 0.0000000e+0
v 0.0000000e+0 -0.10000000 -0.45466334
v -0.26250000 -0.10000000 0.0000000e+0
v 0.26250000 -0.10000000 0.45466334
v 0.26250000 -0.10000000 -0.45466334
v -0.26250000 -0.10000000 -0.45466334
v -0.26250000 -0.10000000 0.45466334
vt 0.357142857 0.784839879
vt 0.357142857 0.791248039
vt 0.363978910 0.761904762
vt 0.363978910 0.768312921
vt 0.363978910 0.777162281
vt 0.363978910 0.783570440
vt 0.092857143 0.502380955
vt 0.365978963 0.791210892
vt 0.365978963 0.797619048
vt 0.092857143 0.502380954
vt 0.403942832 0.761904762
vt 0.403942832 0.768312921
vt 0.403942832 0.777162281
vt 0.403942832 0.783570440
vt 0.443906754 0.761904762
vt 0.443906754 0.768312921
vt 0.443906754 0.777162281
vt 0.443906754 0.783570440
vt 0.483870681 0.761904762
vt 0.483870681 0.768312921
vt 0.483870681 0.777162281
vt 0.483870681 0.783570440
vt 0.504418050 0.791210892
vt 0.504418050 0.797619048
vt 0.523834597 0.761904762
vt 0.523834597 0.768312921
vt 0.523834597 0.777162281
vt 0.523834597 0.783570440
vt 0.542539413 0.789482689
vt 0.542539413 0.795890849
vt 0.638699666 0.789071608
vt 0.638699666 0.795479767
vt 0.642857143 0.791210892
vt 0.642857143 0.797619048
vt 0.297023811 0.152380952
vt 0.297023811 0.327380951
vt 0.297023811 0.502380955
vt 0.297023811 0.677380949
vt 0.297023811 0.852380952
vt 0.297023809 0.152380952
vt 0.297023809 0.327380950
vt 0.297023809 0.502380954
vt 0.297023809 0.677380949
vt 0.297023809 0.852380952
vt 0.399107147 0.677380949
vt 0.399107147 0.152380952
vt 0.399107147 0.327380951
vt 0.399107147 0.502380955
vt 0.399107147 0.852380952
vt 0.399107146 0.152380952
vt 0.399107146 0.327380950
vt 0.399107146 0.502380954
vt 0.399107146 0.677380949
vt 0.399107146 0.852380952
vt 0.501190474 0.152380952
vt 0.501190474 0.327380951
vt 0.501190474 0.502380955
vt 0.501190474 0.677380949
vt 0.501190474 0.852380952
vt 0.501190473 0.327380950
vt 0.501190473 0.502380954
vt 0.501190473 0.677380949
vt 0.501190482 0.152380952
vt 0.501190482 0.852380952
vt 0.603273810 0.152380952
vt 0.603273810 0.327380951
vt 0.603273810 0.502380955
vt 0.603273810 0.677380949
vt 0.603273810 0.852380952
vt 0.603273809 0.152380952
vt 0.603273809 0.327380950
vt 0.603273809 0.502380954
vt 0.603273809 0.677380949
vt 0.603273809 0.852380952
vt 0.705357146 0.152380952
vt 0.705357146 0.327380951
vt 0.705357146 0.502380955
vt 0.705357146 0.677380949
vt 0.705357146 0.852380952
vt 0.705357146 0.152380952
vt 0.705357146 0.327380950
vt 0.705357146 0.502380954
vt 0.705357146 0.677380949
vt 0.705357146 0.852380952
vt 0.909523810 0.502380955
vt 0.909523810 0.502380954
vn 0.0000000e+0 1.00000000 0.0000000e+0
vn 0.0000000e+0 1.00000000 0.0000000e+0
vn 0.0000000e+0 1.00000000 -2.9069731e-18
vn 0.0000000e+0 1.00000000 0.0000000e+0
vn 0.0000000e+0 1.00000000 0.0000000e+0
vn 0.0000000e+0 1.00000000 0.0000000e+0
vn 0.0000000e+0 1.00000000 0.0000000e+0
vn 0.0000000e+0 1.00000000 0.0000000e+0
vn 0.0000000e+0 1.00000000 -1.4534865e-18
vn 0.0000000e+0 1.00000000 -1.4534865e-18
vn 0.0000000e+0 1.00000000 0.0000000e+0
vn 0.0000000e+0 1.00000000 0.0000000e+0
vn 0.0000000e+0 1.00000000 0.0000000e+0
vn 0.0000000e+0 1.00000000 0.0000000e+0
vn 0.0000000e+0 1.00000000 0.0000000e+0
vn 0.0000000e+0 -1.00000000 0.0000000e+0
vn 0.0000000e+0 -1.00000000 0.0000000e+0
vn 0.0000000e+0 -1.00000000 0.0000000e+0
vn 0.0000000e+0 -1.00000000 0.0000000e+0
vn 0.0000000e+0 -1.00000000 0.0000000e+0
vn 0.0000000e+0 -1.00000000 0.0000000e+0
vn 0.0000000e+0 -1.00000000 0.0000000e+0
vn 0.0000000e+0 -1.00000000 0.0000000e+0
vn 0.0000000e+0 -1.00000000 0.0000000e+0
vn 0.0000000e+0 -1.00000000 0.0000000e+0
vn 0.0000000e+0 -1.00000000 0.0000000e+0
vn 0.0000000e+0 -1.00000000 1.4534865e-18
vn 0.0000000e+0 -1.00000000 -1.4534865e-18
vn 0.0000000e+0 -1.00000000 1.4534865e-18
vn 0.0000000e+0 -1.00000000 -1.4534865e-18
vn 0.86602540 0.0000000e+0 0.50000000
vn 0.0000000e+0 1.00000000 0.0000000e+0
vn 0.86602540 0.0000000e+0 -0.50000000
vn 0.0000000e+0 1.00000000 0.0000000e+0
vn 0.0000000e+0 1.00000000 0.0000000e+0
vn 0.0000000e+0 1.00000000 0.0000000e+0
vn 0.27735010 0.0000000e+0 0.96076892
vn 0.27735010 0.0000000e+0 0.96076892
vn 0.27735010 0.0000000e+0 0.96076892
vn 0.0000000e+0 1.00000000 0.0000000e+0
vn 0.27735010 0.0000000e+0 0.96076892
vn 0.27735010 0.0000000e+0 0.96076892
vn 0.27735010 0.0000000e+0 0.96076892
vn 0.27735010 0.0000000e+0 0.96076892
vn 0.0000000e+0 1.00000000 0.0000000e+0
vn -0.50000000 0.0000000e+0 0.86602540
vn -0.50000000 0.0000000e+0 0.86602540
vn 0.0000000e+0 1.00000000 0.0000000e+0
vn 0.0000000e+0 1.00000000 0.0000000e+0
vn -0.86602540 0.0000000e+0 0.50000000
vn -0.86602540 0.0000000e+0 0.50000000
vn -0.86602540 0.0000000e+0 -0.50000000
vn -0.86602540 0.0000000e+0 -0.50000000
vn 0.0000000e+0 1.00000000 0.0000000e+0
vn 0.0000000e+0 1.00000000 0.0000000e+0
vn 0.0000000e+0 1.00000000 0.0000000e+0
vn 0.0000000e+0 1.00000000 0.0000000e+0
vn -0.50000000 0.0000000e+0 -0.86602540
vn 0.0000000e+0 1.00000000 0.0000000e+0
vn -0.50000000 0.0000000e+0 -0.86602540
vn 0.0000000e+0 1.00000000 0.0000000e+0
vn 0.0000000e+0 0.0000000e+0 -1.00000000
vn 0.0000000e+0 0.0000000e+0 -1.00000000
vn 0.86602540 0.0000000e+0 -0.50000000
vn 0.86602540 0.0000000e+0 -0.50000000
vn 0.0000000e+0 1.00000000 0.0000000e+0
vn 0.0000000e+0 0.0000000e+0 -1.00000000
vn 0.0000000e+0 0.0000000e+0 -1.00000000
vn 0.0000000e+0 0.0000000e+0 -1.00000000
vn 0.0000000e+0 1.00000000 0.0000000e+0
vn 0.86602540 0.0000000e+0 0.50000000
vn 0.86602540 0.0000000e+0 0.50000000
vn 0.0000000e+0 -1.00000000 0.0000000e+0
vn 0.86602540 0.0000000e+0 -0.50000000
vn 0.86602540 0.0000000e+0 -0.50000000
vn 0.0000000e+0 -1.00000000 0.0000000e+0
vn 0.0000000e+0 -1.00000000 0.0000000e+0
vn 0.0000000e+0 -1.00000000 0.0000000e+0
vn 0.50000000 0.0000000e+0 0.86602540
vn 0.50000000 0.0000000e+0 0.86602540
vn 0.0000000e+0 -1.00000000 0.0000000e+0
vn 0.0000000e+0 -1.00000000 0.0000000e+0
vn 0.0000000e+0 -1.00000000 0.0000000e+0
vn -0.27735010 0.0000000e+0 0.96076892
vn -0.27735010 0.0000000e+0 0.96076892
vn -0.27735010 0.0000000e+0 0.96076892
vn 0.0000000e+0 -1.00000000 0.0000000e+0
vn -0.27735010 0.0000000e+0 0.96076892
vn -0.27735010 0.0000000e+0 0.96076892
vn -0.27735010 0.0000000e+0 0.96076892
vn 0.0000000e+0 -1.00000000 0.0000000e+0
vn -0.27735010 0.0000000e+0 0.96076892
vn 0.0000000e+0 -1.00000000 0.0000000e+0
vn -0.86602540 0.0000000e+0 0.50000000
vn -0.86602540 0.0000000e+0 -0.50000000
vn 0.0000000e+0 -1.00000000 0.0000000e+0
vn 0.0000000e+0 -1.00000000 0.0000000e+0
vn 0.0000000e+0 -1.00000000 0.0000000e+0
vn 0.0000000e+0 -1.00000000 0.0000000e+0
vn -0.27735010 0.0000000e+0 -0.96076892
vn -0.27735010 0.0000000e+0 -0.96076892
vn -0.27735010 0.0000000e+0 -0.96076892
vn -0.27735010 0.0000000e+0 -0.96076892
vn -0.27735010 0.0000000e+0 -0.96076892
vn -0.27735010 0.0000000e+0 -0.96076892
vn -0.27735010 0.0000000e+0 -0.96076892
vn 0.0000000e+0 -1.00000000 0.0000000e+0
vn 0.0000000e+0 -1.00000000 0.0000000e+0
vn 0.0000000e+0 -1.00000000 0.0000000e+0
vn 0.0000000e+0 -1.00000000 0.0000000e+0
vn 0.86602540 0.0000000e+0 -0.50000000
vn 0.0000000e+0 -1.00000000 0.0000000e+0
vn 0.0000000e+0 0.0000000e+0 -1.00000000
vn 0.0000000e+0 -1.00000000 0.0000000e+0
vn 0.0000000e+0 0.0000000e+0 1.00000000
vn 0.0000000e+0 0.0000000e+0 1.00000000
vn 0.0000000e+0 1.00000000 0.0000000e+0
vn 0.0000000e+0 1.00000000 0.0000000e+0
vn 0.0000000e+0 0.0000000e+0 -1.00000000
vn 0.0000000e+0 0.0000000e+0 -1.00000000
vn 0.0000000e+0 1.00000000 0.0000000e+0
vn 0.0000000e+0 1.00000000 0.0000000e+0
vn 0.0000000e+0 0.0000000e+0 1.00000000
vn 0.0000000e+0 1.00000000 0.0000000e+0
vn 0.0000000e+0 1.00000000 0.0000000e+0
vn 0.0000000e+0 0.0000000e+0 1.00000000
vn 0.0000000e+0 1.00000000 0.0000000e+0
vn 0.0000000e+0 1.00000000 0.0000000e+0
vn 0.0000000e+0 0.0000000e+0 -1.00000000
vn 0.0000000e+0 1.00000000 0.0000000e+0
vn 0.0000000e+0 1.00000000 0.0000000e+0
vn 0.0000000e+0 0.0000000e+0 -1.00000000
vn 0.0000000e+0 1.00000000 0.0000000e+0
vn 0.0000000e+0 1.00000000 0.0000000e+0
vn 0.0000000e+0 0.0000000e+0 1.00000000
vn 0.0000000e+0 1.00000000 0.0000000e+0
vn 0.0000000e+0 1.00000000 0.0000000e+0
vn 0.0000000e+0 0.0000000e+0 1.00000000
vn 0.0000000e+0 1.00000000 0.0000000e+0
vn 0.0000000e+0 1.00000000 0.0000000e+0
vn 0.0000000e+0 0.0000000e+0 -1.00000000
vn 0.0000000e+0 1.00000000 0.0000000e+0
vn 0.0000000e+0 1.00000000 0.0000000e+0
vn 0.0000000e+0 0.0000000e+0 -1.00000000
vn 0.0000000e+0 1.00000000 0.0000000e+0
vn 0.0000000e+0 1.00000000 0.0000000e+0
vn 0.0000000e+0 0.0000000e+0 1.00000000
vn 0.0000000e+0 -1.00000000 0.0000000e+0
vn 0.0000000e+0 -1.00000000 0.0000000e+0
vn 0.0000000e+0 0.0000000e+0 1.00000000
vn 0.0000000e+0 -1.00000000 0.0000000e+0
vn 0.0000000e+0 -1.00000000 0.0000000e+0
vn 0.0000000e+0 0.0000000e+0 -1.00000000
vn 0.0000000e+0 -1.00000000 0.0000000e+0
vn 0.0000000e+0 -1.00000000 0.0000000e+0
vn 0.0000000e+0 0.0000000e+0 -1.00000000
vn 0.0000000e+0 -1.00000000 0.0000000e+0
vn 0.0000000e+0 -1.00000000 0.0000000e+0
vn 0.0000000e+0 0.0000000e+0 1.00000000
vn 0.0000000e+0 -1.00000000 0.0000000e+0
vn 0.0000000e+0 0.0000000e+0 1.00000000
vn 0.0000000e+0 -1.00000000 0.0000000e+0
vn 0.0000000e+0 0.0000000e+0 -1.00000000
vn 0.0000000e+0 -1.00000000 0.0000000e+0
vn 0.0000000e+0 0.0000000e+0 -1.00000000
vn 0.0000000e+0 -1.00000000 0.0000000e+0
vn 0.0000000e+0 0.0000000e+0 1.00000000
vn 0.0000000e+0 -1.00000000 0.0000000e+0
vn 0.0000000e+0 0.0000000e+0 1.00000000
vn 0.0000000e+0 -1.00000000 0.0000000e+0
vn 0.0000000e+0 0.0000000e+0 -1.00000000
vn 0.0000000e+0 -1.00000000 0.0000000e+0
vn 0.0000000e+0 0.0000000e+0 -1.00000000
vn 0.0000000e+0 -1.00000000 0.0000000e+0
g Cylinder1_Cylinder1_auv
usemtl Cylinder1_auv
s 1
f 1/24/33 7/23/74 6/34/64
f 7/23/75 12/33/111 6/34/65
s 2
f 4/2/52 11/31/100 10/1/95
f 5/32/58 11/31/101 4/2/53
f 6/4/63 42/19/163 11/25/103
f 11/25/104 21/20/129 16/16/119
f 11/25/102 25/12/141 6/4/62
f 12/3/113 46/11/173 6/4/69
f 21/20/132 11/25/106 5/26/60
f 25/12/144 11/25/105 16/16/120
f 37/15/153 6/4/67 46/11/171
f 37/15/156 42/19/165 6/4/68
s 3
f 2/9/37 7/23/71 1/24/31
f 2/9/39 8/8/80 7/23/72
f 2/28/38 39/21/159 8/27/79
f 4/2/50 9/29/85 3/30/47
f 4/2/51 10/1/94 9/29/86
f 9/5/88 18/22/123 13/18/115
f 9/5/84 22/14/135 3/6/46
f 9/5/92 43/13/169 2/28/44
f 18/22/126 9/5/90 2/28/41
f 22/14/138 9/5/89 13/18/116
f 34/17/147 2/28/42 43/13/167
f 34/17/150 39/21/161 2/28/43
s 4
f 1/86/32 19/81/4 2/80/40
f 2/80/45 19/81/4 18/70/128
f 3/40/48 20/41/5 4/10/57
f 3/40/49 22/50/140 20/41/5
f 4/10/55 20/41/5 15/42/2
f 4/10/54 24/43/7 5/44/59
f 5/44/61 24/43/7 21/54/133
f 6/84/66 23/83/6 1/86/36
f 6/84/70 25/74/145 23/83/6
f 7/7/76 40/36/19 35/37/16
f 7/7/73 44/38/21 12/39/110
f 8/35/82 40/36/19 7/7/78
f 8/35/81 51/47/27 40/36/19
f 9/75/91 54/66/30 43/65/168
f 10/85/96 41/76/20 9/75/87
f 11/79/108 45/78/22 10/85/99
f 11/79/107 53/68/29 45/78/22
f 12/39/112 52/45/28 46/49/172
f 13/63/117 18/70/127 29/60/11
f 13/63/118 29/60/11 22/50/139
f 14/82/1 1/86/34 23/83/6
f 14/82/1 19/81/4 1/86/35
f 15/42/2 20/41/5 26/52/8
f 15/42/2 26/52/8 24/43/7
f 16/64/122 21/54/134 27/62/9
f 16/64/121 27/62/9 25/74/146
f 17/61/3 27/62/9 26/52/8
f 17/61/3 28/72/10 27/62/9
f 17/61/3 29/60/11 28/72/10
f 19/81/4 28/72/10 32/71/14
f 22/50/137 29/60/11 33/51/15
f 23/83/6 28/72/10 14/82/1
f 24/43/7 4/10/56 15/42/2
f 24/43/7 26/52/8 30/53/12
f 25/74/143 27/62/9 31/73/13
f 26/52/8 29/60/11 17/61/3
f 28/72/10 19/81/4 14/82/1
f 30/53/12 21/54/130 24/43/7
f 30/53/12 26/52/8 27/62/9
f 30/53/12 27/62/9 21/54/131
f 31/73/13 23/83/6 25/74/142
f 31/73/13 27/62/9 28/72/10
f 31/73/13 28/72/10 23/83/6
f 32/71/14 18/70/124 19/81/4
f 32/71/14 28/72/10 29/60/11
f 32/71/14 29/60/11 18/70/125
f 33/51/15 20/41/5 22/50/136
f 33/51/15 26/52/8 20/41/5
f 33/51/15 29/60/11 26/52/8
f 34/55/148 51/47/27 39/46/160
f 34/55/149 54/66/30 47/56/23
f 35/37/16 51/47/27 48/48/24
f 35/37/16 52/45/28 44/38/21
f 36/77/17 10/85/97 45/78/22
f 36/77/17 41/76/20 10/85/98
f 36/77/17 53/68/29 50/67/26
f 36/77/17 54/66/30 41/76/20
f 37/59/154 52/45/28 49/58/25
f 37/59/155 53/68/29 42/69/164
f 38/57/18 51/47/27 47/56/23
f 38/57/18 52/45/28 48/48/24
f 38/57/18 53/68/29 49/58/25
f 38/57/18 54/66/30 50/67/26
f 39/46/162 51/47/27 8/35/83
f 40/36/19 51/47/27 35/37/16
f 41/76/20 54/66/30 9/75/93
f 42/69/166 53/68/29 11/79/109
f 43/65/170 54/66/30 34/55/152
f 44/38/21 7/7/77 35/37/16
f 44/38/21 52/45/28 12/39/114
f 45/78/22 53/68/29 36/77/17
f 46/49/174 52/45/28 37/59/157
f 47/56/23 51/47/27 34/55/151
f 47/56/23 54/66/30 38/57/18
f 48/48/24 51/47/27 38/57/18
f 48/48/24 52/45/28 35/37/16
f 49/58/25 52/45/28 38/57/18
f 49/58/25 53/68/29 37/59/158
f 50/67/26 53/68/29 38/57/18
f 50/67/26 54/66/30 36/77/17
