# UnifiedToolkit Phase 16E-R12 review mesh; geometry unchanged, UVs remapped to high-resolution scan.
# Blender v2.78 (sub 0) OBJ File: ''
# www.blender.org
mtllib tokendualside.mtl
o Cylinder1_Cylinder1_auv
v 0.950000 0.100000 0.000000
v 0.945426 0.100000 -0.093116
v 0.945426 0.100000 0.093116
v 0.931746 0.100000 0.185336
v 0.931746 0.100000 -0.185336
v 0.909093 0.100000 0.275770
v 0.909093 0.100000 -0.275770
v 0.877686 0.100000 0.363549
v 0.877686 0.100000 -0.363549
v 0.837825 0.100000 0.447827
v 0.837825 0.100000 -0.447827
v 0.789896 0.100000 0.527792
v 0.789896 0.100000 -0.527792
v 0.734360 0.100000 0.602674
v 0.734360 0.100000 -0.602674
v 0.671751 0.100000 0.671751
v 0.671751 0.100000 -0.671751
v 0.602674 0.100000 0.734360
v 0.602674 0.100000 -0.734360
v 0.527792 0.100000 0.789896
v 0.527792 0.100000 -0.789896
v 0.447827 0.100000 0.837825
v 0.447827 0.100000 -0.837825
v 0.363549 0.100000 0.877686
v 0.363549 0.100000 -0.877686
v 0.275770 0.100000 0.909093
v 0.275770 0.100000 -0.909093
v 0.185336 0.100000 0.931746
v 0.185336 0.100000 -0.931746
v 0.093116 0.100000 0.945426
v 0.093116 0.100000 -0.945426
v 0.000000 0.100000 0.950000
v -0.000000 0.100000 -0.950000
v -0.093116 0.100000 0.945426
v -0.093116 0.100000 -0.945426
v -0.185336 0.100000 0.931746
v -0.185336 0.100000 -0.931746
v -0.275770 0.100000 0.909093
v -0.275770 0.100000 -0.909093
v -0.363549 0.100000 0.877686
v -0.363549 0.100000 -0.877686
v -0.447827 0.100000 0.837825
v -0.447827 0.100000 -0.837825
v -0.527792 0.100000 0.789896
v -0.527792 0.100000 -0.789896
v -0.602674 0.100000 0.734360
v -0.602674 0.100000 -0.734360
v -0.671751 0.100000 0.671751
v -0.671751 0.100000 -0.671751
v -0.734360 0.100000 0.602674
v -0.734360 0.100000 -0.602674
v -0.789896 0.100000 0.527792
v -0.789896 0.100000 -0.527792
v -0.837825 0.100000 0.447827
v -0.837825 0.100000 -0.447827
v -0.877686 0.100000 0.363549
v -0.877686 0.100000 -0.363549
v -0.909093 0.100000 0.275770
v -0.909093 0.100000 -0.275770
v -0.931746 0.100000 0.185336
v -0.931746 0.100000 -0.185336
v -0.945426 0.100000 0.093116
v -0.945426 0.100000 -0.093116
v -0.950000 0.100000 0.000000
v 0.945426 -0.100000 0.093116
v 0.945426 -0.100000 -0.093116
v 0.950000 -0.100000 -0.000000
v 0.931746 -0.100000 0.185336
v 0.931746 -0.100000 -0.185336
v 0.909093 -0.100000 0.275770
v 0.909093 -0.100000 -0.275770
v 0.877686 -0.100000 0.363549
v 0.877686 -0.100000 -0.363549
v 0.837825 -0.100000 0.447827
v 0.837825 -0.100000 -0.447827
v 0.789896 -0.100000 0.527792
v 0.789896 -0.100000 -0.527792
v 0.734360 -0.100000 0.602674
v 0.734360 -0.100000 -0.602674
v 0.671751 -0.100000 0.671751
v 0.671751 -0.100000 -0.671751
v 0.602674 -0.100000 0.734360
v 0.602674 -0.100000 -0.734360
v 0.527792 -0.100000 0.789896
v 0.527792 -0.100000 -0.789896
v 0.447827 -0.100000 0.837825
v 0.447827 -0.100000 -0.837825
v 0.363549 -0.100000 0.877686
v 0.363549 -0.100000 -0.877686
v 0.275770 -0.100000 0.909093
v 0.275770 -0.100000 -0.909093
v 0.185336 -0.100000 0.931746
v 0.185336 -0.100000 -0.931746
v 0.093116 -0.100000 0.945426
v 0.093116 -0.100000 -0.945426
v 0.000000 -0.100000 0.950000
v -0.000000 -0.100000 -0.950000
v -0.093116 -0.100000 0.945426
v -0.093116 -0.100000 -0.945426
v -0.185336 -0.100000 0.931746
v -0.185336 -0.100000 -0.931746
v -0.275770 -0.100000 0.909093
v -0.275770 -0.100000 -0.909093
v -0.363549 -0.100000 0.877686
v -0.363549 -0.100000 -0.877686
v -0.447827 -0.100000 0.837825
v -0.447827 -0.100000 -0.837825
v -0.527792 -0.100000 0.789896
v -0.527792 -0.100000 -0.789896
v -0.602674 -0.100000 0.734360
v -0.602674 -0.100000 -0.734360
v -0.671751 -0.100000 0.671751
v -0.671751 -0.100000 -0.671751
v -0.734360 -0.100000 0.602674
v -0.734360 -0.100000 -0.602674
v -0.789896 -0.100000 0.527792
v -0.789896 -0.100000 -0.527792
v -0.837825 -0.100000 0.447827
v -0.837825 -0.100000 -0.447827
v -0.877686 -0.100000 0.363549
v -0.877686 -0.100000 -0.363549
v -0.909093 -0.100000 0.275770
v -0.909093 -0.100000 -0.275770
v -0.931746 -0.100000 0.185336
v -0.931746 -0.100000 -0.185336
v -0.945426 -0.100000 0.093116
v -0.945426 -0.100000 -0.093116
v -0.950000 -0.100000 -0.000000
vt 0.835714286 0.498872660
vt 0.834049032 0.531198545
vt 0.834049032 0.466546776
vt 0.829309465 0.434473437
vt 0.829309465 0.563145611
vt 0.821239390 0.403031463
vt 0.821239390 0.594587584
vt 0.810223097 0.372599674
vt 0.810223097 0.625019374
vt 0.796260587 0.343430614
vt 0.796260587 0.654314707
vt 0.779351859 0.315650557
vt 0.779351859 0.681968491
vt 0.759753107 0.289638321
vt 0.759753107 0.707980726
vt 0.737720522 0.265646454
vt 0.737720522 0.731972594
vt 0.713382201 0.243927500
vt 0.713382201 0.753691547
vt 0.686994338 0.224607733
vt 0.686994338 0.773011314
vt 0.658813125 0.207939699
vt 0.658813125 0.789679349
vt 0.629222851 0.194175943
vt 0.629222851 0.803443104
vt 0.598351613 0.183316467
vt 0.598351613 0.814302581
vt 0.566455604 0.175361268
vt 0.566455604 0.822257779
vt 0.533919112 0.170689168
vt 0.533919112 0.826929880
vt 0.501126428 0.169047619
vt 0.501126428 0.828571429
vt 0.468461840 0.170689168
vt 0.468461840 0.826929880
vt 0.435925349 0.175361268
vt 0.435925349 0.822257779
vt 0.404029339 0.183316467
vt 0.404029339 0.814302581
vt 0.373158101 0.194175943
vt 0.373158101 0.803443104
vt 0.343439731 0.207939699
vt 0.343439731 0.789679349
vt 0.315386614 0.224607733
vt 0.315386614 0.773011314
vt 0.288998751 0.243927500
vt 0.288998751 0.753691547
vt 0.264660431 0.265646454
vt 0.264660431 0.731972594
vt 0.242627846 0.289638321
vt 0.242627846 0.707980726
vt 0.223029093 0.315650557
vt 0.223029093 0.681968491
vt 0.206120365 0.343430614
vt 0.206120365 0.654314707
vt 0.192157855 0.372599674
vt 0.192157855 0.625019374
vt 0.181141563 0.403031463
vt 0.181141563 0.594587584
vt 0.173071488 0.434473437
vt 0.173071488 0.563145611
vt 0.168331920 0.466546776
vt 0.168331920 0.531198545
vt 0.166666667 0.498872660
vt 0.168203824 0.466477449
vt 0.168203824 0.531141599
vt 0.166666667 0.498809524
vt 0.173071488 0.434397968
vt 0.173071488 0.563094782
vt 0.181013466 0.403076271
vt 0.181013466 0.594542777
vt 0.192157855 0.372638653
vt 0.192157855 0.624980394
vt 0.206120365 0.343337710
vt 0.206120365 0.654281337
vt 0.223029093 0.315552334
vt 0.223029093 0.682066714
vt 0.242627846 0.289535117
vt 0.242627846 0.708083931
vt 0.264660431 0.265538655
vt 0.264660431 0.731954095
vt 0.288870655 0.243815542
vt 0.288870655 0.753803505
vt 0.315258518 0.224618373
vt 0.315258518 0.773000675
vt 0.343439731 0.207947147
vt 0.343439731 0.789671901
vt 0.373158101 0.194054458
vt 0.373158101 0.803564589
vt 0.404029339 0.183192902
vt 0.404029339 0.814426146
vt 0.435925349 0.175362477
vt 0.435925349 0.822256570
vt 0.468333744 0.170563185
vt 0.468333744 0.827055863
vt 0.501126428 0.169047619
vt 0.501126428 0.828571429
vt 0.533919112 0.170563185
vt 0.533919112 0.827055863
vt 0.566455604 0.175362477
vt 0.566455604 0.822256570
vt 0.598223517 0.183192902
vt 0.598223517 0.814426146
vt 0.629094755 0.194054458
vt 0.629094755 0.803564589
vt 0.658813125 0.207947147
vt 0.658813125 0.789671901
vt 0.686994338 0.224618373
vt 0.686994338 0.773000675
vt 0.713382201 0.243815542
vt 0.713382201 0.753803505
vt 0.737720522 0.265538655
vt 0.737720522 0.731954095
vt 0.759753107 0.289535117
vt 0.759753107 0.708083931
vt 0.779223763 0.315552334
vt 0.779223763 0.682066714
vt 0.796132491 0.343337710
vt 0.796132491 0.654281337
vt 0.810223097 0.372638653
vt 0.810223097 0.624980394
vt 0.821239390 0.403076271
vt 0.821239390 0.594542777
vt 0.829181368 0.434397968
vt 0.829181368 0.563094782
vt 0.834049032 0.466477449
vt 0.834049032 0.531141599
vt 0.835714286 0.498809524
vt 0.492753623 0.810196254
vt 0.492753623 0.804617454
vt 0.531055901 0.810196254
vt 0.453933747 0.810196254
vt 0.415631470 0.804617454
vt 0.453933747 0.804617454
vt 0.415631470 0.810196254
vt 0.378364389 0.810196254
vt 0.342132505 0.804617454
vt 0.378364389 0.804617454
vt 0.342132505 0.810196254
vt 0.306935818 0.810196254
vt 0.273809524 0.804617454
vt 0.306935818 0.804617454
vt 0.273809524 0.810196254
vt 0.242753623 0.810196254
vt 0.214285714 0.804617454
vt 0.242753623 0.804617454
vt 0.214285714 0.810196254
vt 0.757246377 0.800816896
vt 0.785714286 0.795238095
vt 0.785714286 0.800816896
vt 0.726190476 0.795238095
vt 0.757246377 0.795238095
vt 0.726190476 0.800816896
vt 0.693064182 0.800816896
vt 0.657867495 0.795238095
vt 0.693064182 0.795238095
vt 0.657867495 0.800816896
vt 0.621635611 0.800816896
vt 0.584368530 0.795238095
vt 0.621635611 0.795238095
vt 0.584368530 0.800816896
vt 0.546066253 0.800816896
vt 0.507246377 0.795238095
vt 0.546066253 0.795238095
vt 0.507246377 0.800816896
vt 0.468944099 0.800816896
vt 0.430641822 0.795238095
vt 0.468944099 0.795238095
vt 0.430641822 0.800816896
vt 0.393374741 0.800816896
vt 0.357142857 0.795238095
vt 0.393374741 0.795238095
vt 0.357142857 0.800816896
vt 0.321946170 0.800816896
vt 0.288819876 0.795238095
vt 0.321946170 0.795238095
vt 0.288819876 0.800816896
vt 0.257763975 0.800816896
vt 0.229296066 0.795238095
vt 0.257763975 0.795238095
vt 0.229296066 0.800816896
vt 0.742236025 0.828571429
vt 0.770703934 0.822992628
vt 0.770703934 0.828571429
vt 0.711180124 0.822992628
vt 0.742236025 0.822992628
vt 0.711180124 0.828571429
vt 0.678053830 0.828571429
vt 0.642857143 0.822992628
vt 0.678053830 0.822992628
vt 0.642857143 0.828571429
vt 0.606625259 0.828571429
vt 0.569358178 0.822992628
vt 0.606625259 0.822992628
vt 0.569358178 0.828571429
vt 0.531055901 0.828571429
vt 0.492753623 0.822992628
vt 0.531055901 0.822992628
vt 0.492753623 0.828571429
vt 0.453933747 0.828571429
vt 0.415631470 0.822992628
vt 0.453933747 0.822992628
vt 0.415631470 0.828571429
vt 0.378364389 0.828571429
vt 0.342132505 0.822992628
vt 0.378364389 0.822992628
vt 0.342132505 0.828571429
vt 0.306935818 0.828571429
vt 0.273809524 0.822992628
vt 0.306935818 0.822992628
vt 0.273809524 0.828571429
vt 0.242753623 0.828571429
vt 0.214285714 0.822992628
vt 0.242753623 0.822992628
vt 0.214285714 0.828571429
vt 0.757246377 0.819157203
vt 0.785714286 0.813578402
vt 0.785714286 0.819157203
vt 0.726190476 0.813578402
vt 0.757246377 0.813578402
vt 0.726190476 0.819157203
vt 0.693064182 0.819157203
vt 0.657867495 0.813578402
vt 0.693064182 0.813578402
vt 0.657867495 0.819157203
vt 0.621635611 0.819157203
vt 0.584368530 0.813578402
vt 0.621635611 0.813578402
vt 0.584368530 0.819157203
vt 0.546066253 0.819157203
vt 0.507246377 0.813578402
vt 0.546066253 0.813578402
vt 0.507246377 0.819157203
vt 0.468944099 0.819157203
vt 0.430641822 0.813578402
vt 0.468944099 0.813578402
vt 0.430641822 0.819157203
vt 0.393374741 0.819157203
vt 0.357142857 0.813578402
vt 0.393374741 0.813578402
vt 0.357142857 0.819157203
vt 0.321946170 0.819157203
vt 0.288819876 0.813578402
vt 0.321946170 0.813578402
vt 0.288819876 0.819157203
vt 0.257763975 0.819157203
vt 0.229296066 0.813578402
vt 0.257763975 0.813578402
vt 0.229296066 0.819157203
vt 0.742236025 0.810196254
vt 0.770703934 0.804617454
vt 0.770703934 0.810196254
vt 0.711180124 0.804617454
vt 0.742236025 0.804617454
vt 0.711180124 0.810196254
vt 0.678053830 0.810196254
vt 0.642857143 0.804617454
vt 0.678053830 0.804617454
vt 0.642857143 0.810196254
vt 0.606625259 0.810196254
vt 0.569358178 0.804617454
vt 0.606625259 0.804617454
vt 0.569358178 0.810196254
vt 0.531055901 0.804617454
vn 0.0000 1.0000 0.0000
vn 0.0000 -1.0000 -0.0000
vn 1.0000 -0.0000 0.0000
vn 0.9952 0.0000 -0.0980
vn 0.9952 0.0000 0.0980
vn 0.9808 -0.0000 0.1951
vn 0.9569 -0.0000 0.2903
vn 0.9239 0.0000 0.3827
vn 0.8819 -0.0000 0.4714
vn 0.8315 0.0000 0.5556
vn 0.7730 0.0000 0.6344
vn 0.7071 0.0000 0.7071
vn 0.6344 0.0000 0.7730
vn 0.5556 0.0000 0.8315
vn 0.4714 0.0000 0.8819
vn 0.3827 0.0000 0.9239
vn 0.2903 0.0000 0.9569
vn 0.1951 0.0000 0.9808
vn 0.0980 0.0000 0.9952
vn -0.0000 0.0000 1.0000
vn -0.0980 0.0000 0.9952
vn -0.1951 0.0000 0.9808
vn -0.2903 0.0000 0.9569
vn -0.3827 0.0000 0.9239
vn -0.4714 0.0000 0.8819
vn -0.5556 0.0000 0.8315
vn -0.6344 0.0000 0.7730
vn -0.7071 0.0000 0.7071
vn -0.7730 0.0000 0.6344
vn -0.8315 0.0000 0.5556
vn -0.8819 0.0000 0.4714
vn -0.9239 0.0000 0.3827
vn -0.9569 -0.0000 0.2903
vn -0.9808 -0.0000 0.1951
vn -0.9952 0.0000 0.0980
vn -1.0000 0.0000 0.0000
vn -0.9952 0.0000 -0.0980
vn -0.9808 0.0000 -0.1951
vn -0.9569 0.0000 -0.2903
vn -0.9239 -0.0000 -0.3827
vn -0.8819 0.0000 -0.4714
vn -0.8315 0.0000 -0.5556
vn -0.7730 0.0000 -0.6344
vn -0.7071 0.0000 -0.7071
vn -0.6344 0.0000 -0.7730
vn -0.5556 0.0000 -0.8315
vn -0.4714 0.0000 -0.8819
vn -0.3827 0.0000 -0.9239
vn -0.2903 0.0000 -0.9569
vn -0.1951 0.0000 -0.9808
vn -0.0980 0.0000 -0.9952
vn 0.0000 0.0000 -1.0000
vn 0.0980 0.0000 -0.9952
vn 0.1951 0.0000 -0.9808
vn 0.2903 0.0000 -0.9569
vn 0.3827 0.0000 -0.9239
vn 0.4714 0.0000 -0.8819
vn 0.5556 0.0000 -0.8315
vn 0.6344 0.0000 -0.7730
vn 0.7071 0.0000 -0.7071
vn 0.7730 0.0000 -0.6344
vn 0.8315 0.0000 -0.5556
vn 0.8819 0.0000 -0.4714
vn 0.9239 -0.0000 -0.3827
vn 0.9569 0.0000 -0.2903
vn 0.9808 0.0000 -0.1951
usemtl Cylinder1_auv
s 1
f 1/1/1 2/2/1 3/3/1
f 3/3/1 2/2/1 4/4/1
f 4/4/1 5/5/1 6/6/1
f 6/6/1 7/7/1 8/8/1
f 8/8/1 9/9/1 10/10/1
f 10/10/1 11/11/1 12/12/1
f 12/12/1 13/13/1 14/14/1
f 14/14/1 15/15/1 16/16/1
f 16/16/1 17/17/1 18/18/1
f 18/18/1 19/19/1 20/20/1
f 20/20/1 21/21/1 22/22/1
f 22/22/1 23/23/1 24/24/1
f 24/24/1 25/25/1 26/26/1
f 26/26/1 27/27/1 28/28/1
f 28/28/1 29/29/1 30/30/1
f 30/30/1 31/31/1 32/32/1
f 32/32/1 33/33/1 34/34/1
f 34/34/1 35/35/1 36/36/1
f 36/36/1 37/37/1 38/38/1
f 38/38/1 39/39/1 40/40/1
f 40/40/1 41/41/1 42/42/1
f 42/42/1 43/43/1 44/44/1
f 44/44/1 45/45/1 46/46/1
f 46/46/1 47/47/1 48/48/1
f 48/48/1 49/49/1 50/50/1
f 50/50/1 51/51/1 52/52/1
f 52/52/1 53/53/1 54/54/1
f 54/54/1 55/55/1 56/56/1
f 56/56/1 57/57/1 58/58/1
f 58/58/1 59/59/1 60/60/1
f 60/60/1 61/61/1 62/62/1
f 62/62/1 63/63/1 64/64/1
f 63/63/1 62/62/1 61/61/1
f 61/61/1 60/60/1 59/59/1
f 59/59/1 58/58/1 57/57/1
f 57/57/1 56/56/1 55/55/1
f 55/55/1 54/54/1 53/53/1
f 53/53/1 52/52/1 51/51/1
f 51/51/1 50/50/1 49/49/1
f 49/49/1 48/48/1 47/47/1
f 47/47/1 46/46/1 45/45/1
f 45/45/1 44/44/1 43/43/1
f 43/43/1 42/42/1 41/41/1
f 41/41/1 40/40/1 39/39/1
f 39/39/1 38/38/1 37/37/1
f 37/37/1 36/36/1 35/35/1
f 35/35/1 34/34/1 33/33/1
f 33/33/1 32/32/1 31/31/1
f 31/31/1 30/30/1 29/29/1
f 29/29/1 28/28/1 27/27/1
f 27/27/1 26/26/1 25/25/1
f 25/25/1 24/24/1 23/23/1
f 23/23/1 22/22/1 21/21/1
f 21/21/1 20/20/1 19/19/1
f 19/19/1 18/18/1 17/17/1
f 17/17/1 16/16/1 15/15/1
f 15/15/1 14/14/1 13/13/1
f 13/13/1 12/12/1 11/11/1
f 11/11/1 10/10/1 9/9/1
f 9/9/1 8/8/1 7/7/1
f 7/7/1 6/6/1 5/5/1
f 5/5/1 4/4/1 2/2/1
f 65/65/2 66/66/2 67/67/2
f 68/68/2 69/69/2 65/65/2
f 70/70/2 71/71/2 68/68/2
f 72/72/2 73/73/2 70/70/2
f 74/74/2 75/75/2 72/72/2
f 76/76/2 77/77/2 74/74/2
f 78/78/2 79/79/2 76/76/2
f 80/80/2 81/81/2 78/78/2
f 82/82/2 83/83/2 80/80/2
f 84/84/2 85/85/2 82/82/2
f 86/86/2 87/87/2 84/84/2
f 88/88/2 89/89/2 86/86/2
f 90/90/2 91/91/2 88/88/2
f 92/92/2 93/93/2 90/90/2
f 94/94/2 95/95/2 92/92/2
f 96/96/2 97/97/2 94/94/2
f 98/98/2 99/99/2 96/96/2
f 100/100/2 101/101/2 98/98/2
f 102/102/2 103/103/2 100/100/2
f 104/104/2 105/105/2 102/102/2
f 106/106/2 107/107/2 104/104/2
f 108/108/2 109/109/2 106/106/2
f 110/110/2 111/111/2 108/108/2
f 112/112/2 113/113/2 110/110/2
f 114/114/2 115/115/2 112/112/2
f 116/116/2 117/117/2 114/114/2
f 118/118/2 119/119/2 116/116/2
f 120/120/2 121/121/2 118/118/2
f 122/122/2 123/123/2 120/120/2
f 124/124/2 125/125/2 122/122/2
f 126/126/2 127/127/2 124/124/2
f 128/128/2 127/127/2 126/126/2
f 125/125/2 124/124/2 127/127/2
f 123/123/2 122/122/2 125/125/2
f 121/121/2 120/120/2 123/123/2
f 119/119/2 118/118/2 121/121/2
f 117/117/2 116/116/2 119/119/2
f 115/115/2 114/114/2 117/117/2
f 113/113/2 112/112/2 115/115/2
f 111/111/2 110/110/2 113/113/2
f 109/109/2 108/108/2 111/111/2
f 107/107/2 106/106/2 109/109/2
f 105/105/2 104/104/2 107/107/2
f 103/103/2 102/102/2 105/105/2
f 101/101/2 100/100/2 103/103/2
f 99/99/2 98/98/2 101/101/2
f 97/97/2 96/96/2 99/99/2
f 95/95/2 94/94/2 97/97/2
f 93/93/2 92/92/2 95/95/2
f 91/91/2 90/90/2 93/93/2
f 89/89/2 88/88/2 91/91/2
f 87/87/2 86/86/2 89/89/2
f 85/85/2 84/84/2 87/87/2
f 83/83/2 82/82/2 85/85/2
f 81/81/2 80/80/2 83/83/2
f 79/79/2 78/78/2 81/81/2
f 77/77/2 76/76/2 79/79/2
f 75/75/2 74/74/2 77/77/2
f 73/73/2 72/72/2 75/75/2
f 71/71/2 70/70/2 73/73/2
f 69/69/2 68/68/2 71/71/2
f 66/66/2 65/65/2 69/69/2
f 1/129/3 67/130/3 2/131/4
f 3/132/5 67/130/3 1/129/3
f 3/132/5 68/133/6 65/134/5
f 4/135/6 68/133/6 3/132/5
f 6/136/7 68/133/6 4/135/6
f 6/136/7 72/137/8 70/138/7
f 8/139/8 72/137/8 6/136/7
f 10/140/9 72/137/8 8/139/8
f 10/140/9 76/141/10 74/142/9
f 12/143/10 76/141/10 10/140/9
f 14/144/11 76/141/10 12/143/10
f 14/144/11 80/145/12 78/146/11
f 16/147/12 80/145/12 14/144/11
f 18/148/13 80/149/12 16/150/12
f 18/148/13 84/151/14 82/152/13
f 20/153/14 84/151/14 18/148/13
f 22/154/15 84/151/14 20/153/14
f 22/154/15 88/155/16 86/156/15
f 24/157/16 88/155/16 22/154/15
f 26/158/17 88/155/16 24/157/16
f 26/158/17 92/159/18 90/160/17
f 28/161/18 92/159/18 26/158/17
f 30/162/19 92/159/18 28/161/18
f 30/162/19 96/163/20 94/164/19
f 32/165/20 96/163/20 30/162/19
f 34/166/21 96/163/20 32/165/20
f 34/166/21 100/167/22 98/168/21
f 36/169/22 100/167/22 34/166/21
f 38/170/23 100/167/22 36/169/22
f 38/170/23 104/171/24 102/172/23
f 40/173/24 104/171/24 38/170/23
f 42/174/25 104/171/24 40/173/24
f 42/174/25 108/175/26 106/176/25
f 44/177/26 108/175/26 42/174/25
f 46/178/27 108/175/26 44/177/26
f 46/178/27 112/179/28 110/180/27
f 48/181/28 112/179/28 46/178/27
f 50/182/29 112/183/28 48/184/28
f 50/182/29 116/185/30 114/186/29
f 52/187/30 116/185/30 50/182/29
f 54/188/31 116/185/30 52/187/30
f 54/188/31 120/189/32 118/190/31
f 56/191/32 120/189/32 54/188/31
f 58/192/33 120/189/32 56/191/32
f 58/192/33 124/193/34 122/194/33
f 60/195/34 124/193/34 58/192/33
f 62/196/35 124/193/34 60/195/34
f 62/196/35 128/197/36 126/198/35
f 64/199/36 128/197/36 62/196/35
f 63/200/37 128/197/36 64/199/36
f 63/200/37 125/201/38 127/202/37
f 61/203/38 125/201/38 63/200/37
f 59/204/39 125/201/38 61/203/38
f 59/204/39 121/205/40 123/206/39
f 57/207/40 121/205/40 59/204/39
f 55/208/41 121/205/40 57/207/40
f 55/208/41 117/209/42 119/210/41
f 53/211/42 117/209/42 55/208/41
f 51/212/43 117/209/42 53/211/42
f 51/212/43 113/213/44 115/214/43
f 49/215/44 113/213/44 51/212/43
f 47/216/45 113/217/44 49/218/44
f 47/216/45 109/219/46 111/220/45
f 45/221/46 109/219/46 47/216/45
f 43/222/47 109/219/46 45/221/46
f 43/222/47 105/223/48 107/224/47
f 41/225/48 105/223/48 43/222/47
f 39/226/49 105/223/48 41/225/48
f 39/226/49 101/227/50 103/228/49
f 37/229/50 101/227/50 39/226/49
f 35/230/51 101/227/50 37/229/50
f 35/230/51 97/231/52 99/232/51
f 33/233/52 97/231/52 35/230/51
f 31/234/53 97/231/52 33/233/52
f 31/234/53 93/235/54 95/236/53
f 29/237/54 93/235/54 31/234/53
f 27/238/55 93/235/54 29/237/54
f 27/238/55 89/239/56 91/240/55
f 25/241/56 89/239/56 27/238/55
f 23/242/57 89/239/56 25/241/56
f 23/242/57 85/243/58 87/244/57
f 21/245/58 85/243/58 23/242/57
f 19/246/59 85/243/58 21/245/58
f 19/246/59 81/247/60 83/248/59
f 17/249/60 81/247/60 19/246/59
f 15/250/61 81/251/60 17/252/60
f 15/250/61 77/253/62 79/254/61
f 13/255/62 77/253/62 15/250/61
f 11/256/63 77/253/62 13/255/62
f 11/256/63 73/257/64 75/258/63
f 9/259/64 73/257/64 11/256/63
f 7/260/65 73/257/64 9/259/64
f 7/260/65 69/261/66 71/262/65
f 5/263/66 69/261/66 7/260/65
f 2/131/4 67/130/3 66/264/4
f 2/131/4 69/261/66 5/263/66
f 65/134/5 67/130/3 3/132/5
f 70/138/7 68/133/6 6/136/7
f 74/142/9 72/137/8 10/140/9
f 78/146/11 76/141/10 14/144/11
f 82/152/13 80/149/12 18/148/13
f 86/156/15 84/151/14 22/154/15
f 90/160/17 88/155/16 26/158/17
f 94/164/19 92/159/18 30/162/19
f 98/168/21 96/163/20 34/166/21
f 102/172/23 100/167/22 38/170/23
f 106/176/25 104/171/24 42/174/25
f 110/180/27 108/175/26 46/178/27
f 114/186/29 112/183/28 50/182/29
f 118/190/31 116/185/30 54/188/31
f 122/194/33 120/189/32 58/192/33
f 126/198/35 124/193/34 62/196/35
f 127/202/37 128/197/36 63/200/37
f 123/206/39 125/201/38 59/204/39
f 119/210/41 121/205/40 55/208/41
f 115/214/43 117/209/42 51/212/43
f 111/220/45 113/217/44 47/216/45
f 107/224/47 109/219/46 43/222/47
f 103/228/49 105/223/48 39/226/49
f 99/232/51 101/227/50 35/230/51
f 95/236/53 97/231/52 31/234/53
f 91/240/55 93/235/54 27/238/55
f 87/244/57 89/239/56 23/242/57
f 83/248/59 85/243/58 19/246/59
f 79/254/61 81/251/60 15/250/61
f 75/258/63 77/253/62 11/256/63
f 71/262/65 73/257/64 7/260/65
f 66/264/4 69/261/66 2/131/4
