# Blender 5.2.0 LTS
# www.blender.org
o shield
v 0.945400 0.100000 0.093100
v 1.095100 -0.100000 0.078400
v 1.095100 0.100000 0.078400
v 0.837800 0.100000 0.447800
v 0.954100 -0.100000 0.543300
v 0.837800 -0.100000 0.447800
v 0.602700 0.100000 0.734400
v 0.719000 -0.100000 0.829800
v 0.719000 0.100000 0.829800
v 0.275800 0.100000 0.909100
v 0.290500 -0.100000 1.058800
v 0.275800 -0.100000 0.909100
v -0.093100 0.100000 0.945400
v -0.078400 -0.100000 1.095100
v -0.078400 0.100000 1.095100
v -0.447800 0.100000 0.837800
v -0.543300 -0.100000 0.954100
v -0.447800 -0.100000 0.837800
v -0.734400 0.100000 0.602700
v -0.829800 -0.100000 0.719000
v -0.829800 0.100000 0.719000
v -0.909100 0.100000 0.275800
v -1.058800 -0.100000 0.290500
v -0.909100 -0.100000 0.275800
v -0.945400 0.100000 -0.093100
v -1.095100 -0.100000 -0.078400
v -1.095100 0.100000 -0.078400
v -0.837800 0.100000 -0.447800
v -0.954100 -0.100000 -0.543300
v -0.837800 -0.100000 -0.447800
v -0.602700 0.100000 -0.734400
v -0.719000 -0.100000 -0.829800
v -0.719000 0.100000 -0.829800
v -0.275800 0.100000 -0.909100
v -0.290500 -0.100000 -1.058800
v -0.275800 -0.100000 -0.909100
v 0.093100 0.100000 -0.945400
v 0.078400 -0.100000 -1.095100
v 0.078400 0.100000 -1.095100
v 0.447800 0.100000 -0.837800
v 0.543300 -0.100000 -0.954100
v 0.447800 -0.100000 -0.837800
v 0.734400 0.100000 -0.602700
v 0.829800 -0.100000 -0.719000
v 0.829800 0.100000 -0.719000
v 0.909100 0.100000 -0.275800
v 1.058800 -0.100000 -0.290500
v 0.909100 -0.100000 -0.275800
v 0.945400 -0.100000 0.093100
v 0.602700 -0.100000 0.734400
v -0.093100 -0.100000 0.945400
v -0.734400 -0.100000 0.602700
v -0.945400 -0.100000 -0.093100
v -0.602700 -0.100000 -0.734400
v 0.093100 -0.100000 -0.945400
v 0.734400 -0.100000 -0.602700
v 1.058800 0.100000 -0.290500
v 0.543300 0.100000 -0.954100
v -0.290500 0.100000 -1.058800
v -0.954100 0.100000 -0.543300
v -1.058800 0.100000 0.290500
v -0.543300 0.100000 0.954100
v 0.290500 0.100000 1.058800
v 0.954100 0.100000 0.543300
v 0.931700 -0.100000 0.185300
v 0.931700 0.100000 0.185300
v 0.909100 0.100000 0.275800
v 0.877700 -0.100000 0.363500
v 0.909100 -0.100000 0.275800
v 0.877700 0.100000 0.363500
v 0.527800 -0.100000 0.789900
v 0.527800 0.100000 0.789900
v 0.447800 0.100000 0.837800
v 0.363500 -0.100000 0.877700
v 0.447800 -0.100000 0.837800
v 0.363500 0.100000 0.877700
v -0.185300 -0.100000 0.931700
v -0.185300 0.100000 0.931700
v -0.275800 0.100000 0.909100
v -0.363500 -0.100000 0.877700
v -0.275800 -0.100000 0.909100
v -0.363500 0.100000 0.877700
v -0.789900 -0.100000 0.527800
v -0.789900 0.100000 0.527800
v -0.837800 0.100000 0.447800
v -0.877700 -0.100000 0.363500
v -0.837800 -0.100000 0.447800
v -0.877700 0.100000 0.363500
v -0.931700 -0.100000 -0.185300
v -0.931700 0.100000 -0.185300
v -0.909100 0.100000 -0.275800
v -0.877700 -0.100000 -0.363500
v -0.909100 -0.100000 -0.275800
v -0.877700 0.100000 -0.363500
v -0.527800 -0.100000 -0.789900
v -0.527800 0.100000 -0.789900
v -0.447800 0.100000 -0.837800
v -0.363500 -0.100000 -0.877700
v -0.447800 -0.100000 -0.837800
v -0.363500 0.100000 -0.877700
v 0.185300 -0.100000 -0.931700
v 0.185300 0.100000 -0.931700
v 0.275800 0.100000 -0.909100
v 0.363500 -0.100000 -0.877700
v 0.275800 -0.100000 -0.909100
v 0.363500 0.100000 -0.877700
v 0.789900 -0.100000 -0.527800
v 0.789900 0.100000 -0.527800
v 0.837800 0.100000 -0.447800
v 0.877700 -0.100000 -0.363500
v 0.837800 -0.100000 -0.447800
v 0.877700 0.100000 -0.363500
v 1.099700 0.100000 -0.014700
v 1.099700 -0.100000 -0.014700
v 1.081500 0.100000 -0.200100
v 1.095100 -0.100000 -0.107900
v 1.081500 -0.100000 -0.200100
v 1.095100 0.100000 -0.107900
v 0.623200 0.100000 -0.906200
v 0.698100 -0.100000 -0.850700
v 0.623200 -0.100000 -0.906200
v 0.698100 0.100000 -0.850700
v 0.767200 0.100000 -0.788000
v 0.767200 -0.100000 -0.788000
v -0.200100 0.100000 -1.081500
v -0.107900 -0.100000 -1.095100
v -0.200100 -0.100000 -1.081500
v -0.107900 0.100000 -1.095100
v -0.014700 0.100000 -1.099700
v -0.014700 -0.100000 -1.099700
v -0.906200 0.100000 -0.623200
v -0.850700 -0.100000 -0.698100
v -0.906200 -0.100000 -0.623200
v -0.850700 0.100000 -0.698100
v -0.788000 0.100000 -0.767200
v -0.788000 -0.100000 -0.767200
v -1.081500 0.100000 0.200100
v -1.095100 -0.100000 0.107900
v -1.081500 -0.100000 0.200100
v -1.095100 0.100000 0.107900
v -1.099700 0.100000 0.014700
v -1.099700 -0.100000 0.014700
v -0.623200 0.100000 0.906200
v -0.698100 -0.100000 0.850700
v -0.623200 -0.100000 0.906200
v -0.698100 0.100000 0.850700
v -0.767200 0.100000 0.788000
v -0.767200 -0.100000 0.788000
v 0.200100 0.100000 1.081500
v 0.107900 -0.100000 1.095100
v 0.200100 -0.100000 1.081500
v 0.107900 0.100000 1.095100
v 0.014700 0.100000 1.099700
v 0.014700 -0.100000 1.099700
v 0.906200 0.100000 0.623200
v 0.850700 -0.100000 0.698100
v 0.906200 -0.100000 0.623200
v 0.850700 0.100000 0.698100
v 0.788000 0.100000 0.767200
v 0.788000 -0.100000 0.767200
vn 0.0977 -0.0000 0.9952
vn 0.0981 -0.0000 0.9952
vn 0.6346 -0.0000 -0.7728
vn -0.6342 -0.0000 0.7732
vn 0.9952 -0.0000 -0.0977
vn 0.9952 -0.0000 -0.0981
vn -0.9952 -0.0000 0.0977
vn 0.7728 -0.0000 0.6346
vn 0.7730 -0.0000 0.6344
vn -0.7732 -0.0000 -0.6342
vn -0.7729 -0.0000 -0.6346
vn -0.0977 -0.0000 -0.9952
vn -0.0981 -0.0000 -0.9952
vn -0.6346 -0.0000 0.7728
vn 0.6342 -0.0000 -0.7732
vn -0.9952 -0.0000 0.0981
vn -0.7728 -0.0000 -0.6346
vn -0.7730 -0.0000 -0.6344
vn 0.7732 -0.0000 0.6342
vn 0.7729 -0.0000 0.6346
vn -0.6345 -0.0000 0.7729
vn 0.6345 -0.0000 -0.7729
vn 0.9891 -0.0000 0.1470
vn 0.9808 -0.0000 0.1952
vn 0.9808 -0.0000 0.1949
vn 0.9570 -0.0000 0.2900
vn 0.9238 -0.0000 0.3829
vn 0.9569 -0.0000 0.2904
vn 0.9239 -0.0000 0.3826
vn 0.9040 -0.0000 0.4275
vn 0.5956 -0.0000 0.8033
vn 0.5552 -0.0000 0.8317
vn 0.5957 -0.0000 0.8032
vn 0.4713 -0.0000 0.8820
vn 0.3829 -0.0000 0.9238
vn 0.3371 -0.0000 0.9415
vn -0.1466 -0.0000 0.9892
vn -0.1949 -0.0000 0.9808
vn -0.2900 -0.0000 0.9570
vn -0.3829 -0.0000 0.9238
vn -0.2904 -0.0000 0.9569
vn -0.4278 -0.0000 0.9039
vn -0.8033 -0.0000 0.5956
vn -0.8315 -0.0000 0.5555
vn -0.8035 -0.0000 0.5954
vn -0.8820 -0.0000 0.4713
vn -0.9238 -0.0000 0.3829
vn -0.9239 -0.0000 0.3826
vn -0.9416 -0.0000 0.3368
vn -0.9891 -0.0000 -0.1470
vn -0.9808 -0.0000 -0.1952
vn -0.9808 -0.0000 -0.1949
vn -0.9570 -0.0000 -0.2900
vn -0.9238 -0.0000 -0.3829
vn -0.9569 -0.0000 -0.2904
vn -0.9239 -0.0000 -0.3826
vn -0.9040 -0.0000 -0.4275
vn -0.5956 -0.0000 -0.8033
vn -0.5552 -0.0000 -0.8317
vn -0.5957 -0.0000 -0.8032
vn -0.4713 -0.0000 -0.8820
vn -0.3829 -0.0000 -0.9238
vn -0.3371 -0.0000 -0.9415
vn 0.1466 -0.0000 -0.9892
vn 0.1949 -0.0000 -0.9808
vn 0.2900 -0.0000 -0.9570
vn 0.3829 -0.0000 -0.9238
vn 0.2904 -0.0000 -0.9569
vn 0.4278 -0.0000 -0.9039
vn 0.8033 -0.0000 -0.5956
vn 0.8315 -0.0000 -0.5555
vn 0.8035 -0.0000 -0.5954
vn 0.8820 -0.0000 -0.4713
vn 0.9238 -0.0000 -0.3829
vn 0.9239 -0.0000 -0.3826
vn 0.9416 -0.0000 -0.3368
vn 0.9039 -0.0000 0.4278
vn -0.4274 -0.0000 0.9041
vn -0.9415 -0.0000 0.3371
vn -0.9039 -0.0000 -0.4278
vn 0.4274 -0.0000 -0.9041
vn 0.9415 -0.0000 -0.3371
vn 1.0000 -0.0000 -0.0000
vn 0.9988 -0.0000 0.0493
vn 0.9808 -0.0000 -0.1950
vn 0.9700 -0.0000 -0.2431
vn 0.5554 -0.0000 -0.8316
vn 0.6344 -0.0000 -0.7730
vn 0.7071 -0.0000 -0.7071
vn 0.7409 -0.0000 -0.6716
vn 0.5142 -0.0000 -0.8577
vn -0.1950 -0.0000 -0.9808
vn -0.0000 -0.0000 -1.0000
vn 0.0493 -0.0000 -0.9988
vn -0.2431 -0.0000 -0.9700
vn -0.8316 -0.0000 -0.5554
vn -0.7071 -0.0000 -0.7071
vn -0.6716 -0.0000 -0.7409
vn -0.8577 -0.0000 -0.5142
vn -0.9808 -0.0000 0.1950
vn -1.0000 -0.0000 -0.0000
vn -0.9988 -0.0000 -0.0493
vn -0.9700 -0.0000 0.2431
vn -0.5554 -0.0000 0.8316
vn -0.6344 -0.0000 0.7730
vn -0.7071 -0.0000 0.7071
vn -0.7409 -0.0000 0.6716
vn -0.5142 -0.0000 0.8577
vn 0.1950 -0.0000 0.9808
vn -0.0000 -0.0000 1.0000
vn -0.0493 -0.0000 0.9988
vn 0.2431 -0.0000 0.9700
vn 0.8316 -0.0000 0.5554
vn 0.7071 -0.0000 0.7071
vn 0.6716 -0.0000 0.7409
vn 0.8577 -0.0000 0.5142
vn -0.0000 1.0000 -0.0000
vn -0.0000 -1.0000 -0.0000
vt 0.079629 0.157198
vt 0.088008 0.134887
vt 0.088008 0.157198
vt 0.088008 0.115763
vt 0.079629 0.093542
vt 0.088008 0.093542
vt 0.475588 0.123959
vt 0.480415 0.101647
vt 0.480415 0.123959
vt 0.489977 0.899758
vt 0.481599 0.877446
vt 0.489977 0.877446
vt 0.481599 0.816978
vt 0.489977 0.794666
vt 0.489977 0.816978
vt 0.489977 0.775542
vt 0.481599 0.753231
vt 0.489977 0.753231
vt 0.475588 0.082523
vt 0.480415 0.060212
vt 0.480415 0.082523
vt 0.489977 0.858322
vt 0.481599 0.836102
vt 0.489977 0.836102
vt 0.085640 0.896206
vt 0.094018 0.873895
vt 0.094018 0.896206
vt 0.094018 0.854771
vt 0.085640 0.832550
vt 0.094018 0.832550
vt 0.475588 0.165303
vt 0.480415 0.143083
vt 0.480415 0.165303
vt 0.088008 0.198542
vt 0.079629 0.176322
vt 0.088008 0.176322
vt 0.085640 0.813335
vt 0.094018 0.791115
vt 0.094018 0.813335
vt 0.088008 0.074327
vt 0.079629 0.052107
vt 0.088008 0.052107
vt 0.475588 0.206738
vt 0.480415 0.184427
vt 0.480415 0.206738
vt 0.489977 0.941193
vt 0.481599 0.918882
vt 0.489977 0.918882
vt 0.079629 0.134887
vt 0.475588 0.101647
vt 0.481599 0.794666
vt 0.475588 0.060212
vt 0.085640 0.873895
vt 0.475588 0.143083
vt 0.085640 0.791115
vt 0.475588 0.184427
vt 0.481599 0.941193
vt 0.079629 0.074327
vt 0.079629 0.198542
vt 0.085640 0.854771
vt 0.481599 0.858322
vt 0.481599 0.775542
vt 0.481599 0.899758
vt 0.079629 0.115763
vt 0.073164 0.854771
vt 0.068064 0.832550
vt 0.073164 0.832550
vt 0.068064 0.854771
vt 0.062873 0.854771
vt 0.057682 0.832550
vt 0.062873 0.832550
vt 0.057682 0.854771
vt 0.052583 0.854771
vt 0.470762 0.101647
vt 0.470762 0.123959
vt 0.465753 0.123959
vt 0.460653 0.101647
vt 0.465753 0.101647
vt 0.460653 0.123959
vt 0.455463 0.123959
vt 0.067244 0.198542
vt 0.062054 0.176322
vt 0.067244 0.176322
vt 0.062054 0.198542
vt 0.056863 0.198542
vt 0.051672 0.176322
vt 0.056863 0.176322
vt 0.051672 0.198542
vt 0.046572 0.198542
vt 0.470762 0.060212
vt 0.470762 0.082523
vt 0.465753 0.082523
vt 0.460653 0.060212
vt 0.465753 0.060212
vt 0.460653 0.082523
vt 0.455463 0.082523
vt 0.067244 0.157198
vt 0.062054 0.134887
vt 0.067244 0.134887
vt 0.062054 0.157198
vt 0.056863 0.157198
vt 0.051672 0.134887
vt 0.056863 0.134887
vt 0.051672 0.157198
vt 0.046572 0.157198
vt 0.470762 0.143083
vt 0.470762 0.165303
vt 0.465753 0.165303
vt 0.460653 0.143083
vt 0.465753 0.143083
vt 0.460653 0.165303
vt 0.455463 0.165303
vt 0.067244 0.074327
vt 0.062054 0.052107
vt 0.067244 0.052107
vt 0.062054 0.074327
vt 0.056863 0.074327
vt 0.051672 0.052107
vt 0.056863 0.052107
vt 0.051672 0.074327
vt 0.046572 0.074327
vt 0.470762 0.184427
vt 0.470762 0.206738
vt 0.465753 0.206738
vt 0.460653 0.184427
vt 0.465753 0.184427
vt 0.460653 0.206738
vt 0.455463 0.206738
vt 0.052583 0.832550
vt 0.455463 0.101647
vt 0.046572 0.176322
vt 0.455463 0.060212
vt 0.046572 0.134887
vt 0.455463 0.143083
vt 0.046572 0.052107
vt 0.455463 0.184427
vt 0.051672 0.115763
vt 0.046572 0.093542
vt 0.051672 0.093542
vt 0.062054 0.115763
vt 0.056863 0.093542
vt 0.062054 0.093542
vt 0.056863 0.115763
vt 0.067244 0.093542
vt 0.046572 0.115763
vt 0.067244 0.115763
vt 0.456646 0.899758
vt 0.451456 0.877446
vt 0.456646 0.877446
vt 0.451456 0.899758
vt 0.446265 0.899758
vt 0.485059 0.206738
vt 0.485059 0.184427
vt 0.461837 0.877446
vt 0.446265 0.877446
vt 0.461837 0.899758
vt 0.068064 0.937550
vt 0.062873 0.915330
vt 0.068064 0.915330
vt 0.062873 0.937550
vt 0.057682 0.937550
vt 0.052583 0.915330
vt 0.057682 0.915330
vt 0.073164 0.915330
vt 0.073164 0.937550
vt 0.052583 0.937550
vt 0.456646 0.816978
vt 0.451456 0.794666
vt 0.456646 0.794666
vt 0.451456 0.816978
vt 0.446265 0.816978
vt 0.485059 0.165303
vt 0.485059 0.143083
vt 0.461837 0.794666
vt 0.446265 0.794666
vt 0.461837 0.816978
vt 0.068064 0.896206
vt 0.062873 0.873895
vt 0.068064 0.873895
vt 0.062873 0.896206
vt 0.057682 0.896206
vt 0.052583 0.873895
vt 0.057682 0.873895
vt 0.073164 0.873895
vt 0.073164 0.896206
vt 0.052583 0.896206
vt 0.456646 0.858322
vt 0.451456 0.836102
vt 0.456646 0.836102
vt 0.451456 0.858322
vt 0.446265 0.858322
vt 0.485059 0.082523
vt 0.485059 0.060212
vt 0.461837 0.836102
vt 0.446265 0.836102
vt 0.461837 0.858322
vt 0.068064 0.813335
vt 0.062873 0.791115
vt 0.068064 0.791115
vt 0.062873 0.813335
vt 0.057682 0.813335
vt 0.052583 0.791115
vt 0.057682 0.791115
vt 0.073164 0.791115
vt 0.052583 0.813335
vt 0.073164 0.813335
vt 0.456646 0.941193
vt 0.451456 0.918882
vt 0.456646 0.918882
vt 0.451456 0.941193
vt 0.446265 0.941193
vt 0.485059 0.123959
vt 0.485059 0.101647
vt 0.461837 0.918882
vt 0.446265 0.918882
vt 0.461837 0.941193
vt 0.408367 0.293093
vt 0.433844 0.442595
vt 0.399428 0.273882
vt 0.385270 0.245487
vt 0.375720 0.222367
vt 0.431535 0.467539
vt 0.366985 0.200868
vt 0.357218 0.127448
vt 0.370008 0.141679
vt 0.289307 0.129458
vt 0.392020 0.698988
vt 0.277393 0.130418
vt 0.340363 0.112188
vt 0.260304 0.129976
vt 0.244756 0.129556
vt 0.380929 0.719597
vt 0.227808 0.126804
vt 0.197510 0.087221
vt 0.213930 0.080220
vt 0.156667 0.174775
vt 0.271914 0.837827
vt 0.147414 0.197164
vt 0.183839 0.094737
vt 0.136710 0.219663
vt 0.240508 0.836389
vt 0.122561 0.245171
vt 0.222184 0.838754
vt 0.109793 0.263507
vt 0.078159 0.282156
vt 0.086589 0.251162
vt 0.076909 0.411594
vt 0.208383 0.843111
vt 0.143873 0.776179
vt 0.077473 0.438170
vt 0.068461 0.314510
vt 0.077101 0.467484
vt 0.077250 0.504495
vt 0.131327 0.743881
vt 0.076398 0.531645
vt 0.055713 0.604025
vt 0.053295 0.568384
vt 0.099927 0.671343
vt 0.121465 0.720536
vt 0.110085 0.695219
vt 0.063378 0.636646
vt 0.151751 0.844845
vt 0.139628 0.823829
vt 0.257864 0.836924
vt 0.346604 0.802188
vt 0.306059 0.884623
vt 0.290166 0.888283
vt 0.355442 0.776009
vt 0.367466 0.744572
vt 0.427244 0.569257
vt 0.423233 0.689833
vt 0.415641 0.707338
vt 0.428600 0.538742
vt 0.429915 0.503003
vt 0.440698 0.352066
vt 0.445044 0.394112
vt 0.445954 0.428409
vt 0.560655 0.534960
vt 0.541890 0.603143
vt 0.539139 0.569973
vt 0.563126 0.501959
vt 0.585144 0.672992
vt 0.562697 0.466585
vt 0.563151 0.435433
vt 0.629966 0.780621
vt 0.594726 0.691695
vt 0.562811 0.413455
vt 0.595891 0.262801
vt 0.697948 0.842208
vt 0.564433 0.279257
vt 0.571985 0.252551
vt 0.607902 0.245047
vt 0.619336 0.224120
vt 0.631144 0.199647
vt 0.713367 0.839240
vt 0.642212 0.174464
vt 0.714857 0.126697
vt 0.729769 0.840182
vt 0.833553 0.799703
vt 0.760226 0.843313
vt 0.684854 0.085821
vt 0.699723 0.081002
vt 0.729292 0.127635
vt 0.744983 0.128105
vt 0.760068 0.128298
vt 0.841909 0.772931
vt 0.774700 0.127056
vt 0.853870 0.202585
vt 0.864464 0.724019
vt 0.853185 0.747964
vt 0.913749 0.570519
vt 0.878532 0.699725
vt 0.844077 0.128266
vt 0.855602 0.140129
vt 0.864458 0.225077
vt 0.874583 0.250443
vt 0.886093 0.275579
vt 0.913908 0.534377
vt 0.894414 0.292509
vt 0.919057 0.443250
vt 0.915649 0.504759
vt 0.930581 0.388352
vt 0.931572 0.427517
vt 0.918124 0.471006
vt 0.918391 0.663197
vt 0.909482 0.690252
vt 0.902033 0.708752
vt 0.808052 0.874416
vt 0.792568 0.883069
vt 0.776373 0.887510
vt 0.746065 0.841281
vt 0.649863 0.859161
vt 0.636344 0.842226
vt 0.625203 0.824444
vt 0.619410 0.749968
vt 0.609306 0.725165
vt 0.548414 0.635893
vt 0.437093 0.323994
vt 0.555523 0.662001
vt 0.430663 0.294333
vt 0.566114 0.684285
vt 0.432317 0.665311
vt 0.440777 0.633034
vt 0.664220 0.868920
vt 0.683793 0.877225
vt 0.446240 0.601089
vt 0.321203 0.877186
vt 0.337174 0.862005
vt 0.823875 0.862536
vt 0.836804 0.843050
vt 0.351624 0.840391
vt 0.164746 0.860151
vt 0.181643 0.871282
vt 0.925944 0.634184
vt 0.931971 0.602505
vt 0.197517 0.876121
vt 0.071302 0.664291
vt 0.927003 0.355736
vt 0.921180 0.314777
vt 0.915616 0.294710
vt 0.081198 0.683716
vt 0.061171 0.354948
vt 0.828374 0.111847
vt 0.810588 0.098142
vt 0.792146 0.092380
vt 0.057904 0.385941
vt 0.162673 0.113236
vt 0.668155 0.096102
vt 0.648855 0.111867
vt 0.149167 0.129800
vt 0.635170 0.129664
vt 0.323240 0.097534
vt 0.556447 0.306539
vt 0.548869 0.347314
vt 0.307242 0.091343
vt 0.543402 0.384616
s 1
f 1/1/1 2/2/1 3/3/2
f 4/4/3 5/5/3 6/6/3
f 7/7/4 8/8/4 9/9/4
f 10/10/5 11/11/5 12/12/6
f 13/13/7 14/14/7 15/15/7
f 16/16/8 17/17/8 18/18/9
f 19/19/10 20/20/10 21/21/11
f 22/22/1 23/23/1 24/24/1
f 25/25/12 26/26/12 27/27/13
f 28/28/14 29/29/14 30/30/14
f 31/31/15 32/32/15 33/33/15
f 34/34/7 35/35/7 36/36/16
f 37/37/5 38/38/5 39/39/5
f 40/40/17 41/41/17 42/42/18
f 43/43/19 44/44/19 45/45/20
f 46/46/12 47/47/12 48/48/12
f 49/49/2 2/2/1 1/1/1
f 50/50/21 8/8/4 7/7/4
f 51/51/7 14/14/7 13/13/7
f 52/52/10 20/20/10 19/19/10
f 53/53/13 26/26/12 25/25/12
f 54/54/22 32/32/15 31/31/15
f 55/55/5 38/38/5 37/37/5
f 56/56/19 44/44/19 43/43/19
f 57/57/12 47/47/12 46/46/12
f 58/58/18 41/41/17 40/40/17
f 59/59/7 35/35/7 34/34/7
f 60/60/14 29/29/14 28/28/14
f 61/61/1 23/23/1 22/22/1
f 62/62/9 17/17/8 16/16/8
f 63/63/5 11/11/5 10/10/5
f 64/64/3 5/5/3 4/4/3
f 1/65/23 65/66/24 49/67/23
f 66/68/25 65/66/24 1/65/23
f 67/69/26 65/66/24 66/68/25
f 67/69/26 68/70/27 69/71/28
f 70/72/29 68/70/27 67/69/26
f 4/73/30 68/70/27 70/72/29
f 7/7/31 71/74/32 50/50/33
f 72/75/32 71/74/32 7/7/31
f 73/76/34 71/74/32 72/75/32
f 73/76/34 74/77/35 75/78/34
f 76/79/35 74/77/35 73/76/34
f 10/80/36 74/77/35 76/79/35
f 13/81/37 77/82/38 51/83/37
f 78/84/38 77/82/38 13/81/37
f 79/85/39 77/82/38 78/84/38
f 79/85/39 80/86/40 81/87/41
f 82/88/40 80/86/40 79/85/39
f 16/89/42 80/86/40 82/88/40
f 19/19/43 83/90/44 52/52/45
f 84/91/44 83/90/44 19/19/43
f 85/92/46 83/90/44 84/91/44
f 85/92/46 86/93/47 87/94/46
f 88/95/48 86/93/47 85/92/46
f 22/96/49 86/93/47 88/95/48
f 25/97/50 89/98/51 53/99/50
f 90/100/52 89/98/51 25/97/50
f 91/101/53 89/98/51 90/100/52
f 91/101/53 92/102/54 93/103/55
f 94/104/56 92/102/54 91/101/53
f 28/105/57 92/102/54 94/104/56
f 31/31/58 95/106/59 54/54/60
f 96/107/59 95/106/59 31/31/58
f 97/108/61 95/106/59 96/107/59
f 97/108/61 98/109/62 99/110/61
f 100/111/62 98/109/62 97/108/61
f 34/112/63 98/109/62 100/111/62
f 37/113/64 101/114/65 55/115/64
f 102/116/65 101/114/65 37/113/64
f 103/117/66 101/114/65 102/116/65
f 103/117/66 104/118/67 105/119/68
f 106/120/67 104/118/67 103/117/66
f 40/121/69 104/118/67 106/120/67
f 43/43/70 107/122/71 56/56/72
f 108/123/71 107/122/71 43/43/70
f 109/124/73 107/122/71 108/123/71
f 109/124/73 110/125/74 111/126/73
f 112/127/75 110/125/74 109/124/73
f 46/128/76 110/125/74 112/127/75
f 69/71/28 65/66/24 67/69/26
f 6/129/77 68/70/27 4/73/30
f 75/78/34 71/74/32 73/76/34
f 12/130/36 74/77/35 10/80/36
f 81/87/41 77/82/38 79/85/39
f 18/131/78 80/86/40 16/89/42
f 87/94/46 83/90/44 85/92/46
f 24/132/79 86/93/47 22/96/49
f 93/103/55 89/98/51 91/101/53
f 30/133/80 92/102/54 28/105/57
f 99/110/61 95/106/59 97/108/61
f 36/134/63 98/109/62 34/112/63
f 105/119/68 101/114/65 103/117/66
f 42/135/81 104/118/67 40/121/69
f 111/126/73 107/122/71 109/124/73
f 48/136/82 110/125/74 46/128/76
f 113/137/83 2/138/84 114/139/83
f 115/140/85 116/141/5 117/142/85
f 118/143/5 113/137/83 116/141/5
f 114/139/83 116/141/5 113/137/83
f 117/142/85 47/144/86 115/140/85
f 116/141/5 115/140/85 118/143/5
f 3/145/84 2/138/84 113/137/83
f 57/146/86 115/140/85 47/144/86
f 119/147/87 120/148/88 121/149/87
f 122/150/88 123/151/89 120/148/88
f 123/152/89 44/44/90 124/153/89
f 121/149/87 41/154/91 119/147/87
f 120/148/88 119/147/87 122/150/88
f 124/155/89 120/148/88 123/151/89
f 58/156/91 119/147/87 41/154/91
f 45/45/90 44/44/90 123/152/89
f 125/157/92 126/158/12 127/159/92
f 128/160/13 129/161/93 126/158/12
f 129/161/93 38/162/94 130/163/93
f 127/159/92 35/164/95 125/157/92
f 126/158/12 125/157/92 128/160/13
f 130/163/93 126/158/12 129/161/93
f 59/165/95 125/157/92 35/164/95
f 39/166/94 38/162/94 129/161/93
f 131/167/96 132/168/18 133/169/96
f 134/170/18 135/171/97 132/168/18
f 135/172/97 32/32/98 136/173/97
f 133/169/96 29/174/99 131/167/96
f 132/168/18 131/167/96 134/170/18
f 136/175/97 132/168/18 135/171/97
f 60/176/99 131/167/96 29/174/99
f 33/33/98 32/32/98 135/172/97
f 137/177/100 138/178/7 139/179/100
f 140/180/7 141/181/101 138/178/7
f 141/181/101 26/182/102 142/183/101
f 139/179/100 23/184/103 137/177/100
f 138/178/7 137/177/100 140/180/7
f 142/183/101 138/178/7 141/181/101
f 61/185/103 137/177/100 23/184/103
f 27/186/102 26/182/102 141/181/101
f 143/187/104 144/188/105 145/189/104
f 146/190/105 147/191/106 144/188/105
f 147/192/106 20/20/107 148/193/106
f 145/189/104 17/194/108 143/187/104
f 144/188/105 143/187/104 146/190/105
f 148/195/106 144/188/105 147/191/106
f 62/196/108 143/187/104 17/194/108
f 21/21/107 20/20/107 147/192/106
f 149/197/109 150/198/1 151/199/109
f 152/200/2 153/201/110 150/198/1
f 153/201/110 14/202/111 154/203/110
f 151/199/109 11/204/112 149/197/109
f 150/198/1 149/197/109 152/200/2
f 154/203/110 150/198/1 153/201/110
f 15/205/111 14/202/111 153/201/110
f 63/206/112 149/197/109 11/204/112
f 155/207/113 156/208/9 157/209/113
f 158/210/9 159/211/114 156/208/9
f 159/212/114 8/8/115 160/213/114
f 157/209/113 5/214/116 155/207/113
f 156/208/9 155/207/113 158/210/9
f 160/215/114 156/208/9 159/211/114
f 9/9/115 8/8/115 159/212/114
f 64/216/116 155/207/113 5/214/116
f 1/217/117 46/218/117 66/219/117
f 66/219/117 46/218/117 67/220/117
f 67/220/117 46/218/117 70/221/117
f 70/221/117 112/222/117 4/223/117
f 4/223/117 155/224/117 64/225/117
f 7/226/117 4/223/117 112/222/117
f 7/226/117 40/227/117 72/228/117
f 7/226/117 158/229/117 4/223/117
f 72/228/117 40/227/117 73/230/117
f 73/230/117 40/227/117 76/231/117
f 76/231/117 106/232/117 10/233/117
f 10/233/117 149/234/117 63/235/117
f 13/236/117 10/233/117 106/232/117
f 13/236/117 34/237/117 78/238/117
f 13/236/117 152/239/117 10/233/117
f 78/238/117 34/237/117 79/240/117
f 79/240/117 97/241/117 82/242/117
f 82/242/117 96/243/117 16/244/117
f 16/244/117 143/245/117 62/246/117
f 19/247/117 16/244/117 31/248/117
f 19/247/117 28/249/117 84/250/117
f 19/247/117 146/251/117 16/244/117
f 84/250/117 28/249/117 85/252/117
f 85/252/117 28/249/117 88/253/117
f 88/253/117 94/254/117 22/255/117
f 22/255/117 137/256/117 61/257/117
f 25/258/117 22/255/117 94/254/117
f 25/258/117 91/259/117 90/260/117
f 25/258/117 140/261/117 22/255/117
f 91/259/117 25/258/117 94/254/117
f 94/254/117 88/253/117 28/249/117
f 28/249/117 19/247/117 31/248/117
f 28/249/117 131/262/117 60/263/117
f 31/248/117 16/244/117 96/243/117
f 96/243/117 82/242/117 97/241/117
f 97/241/117 79/240/117 34/237/117
f 97/241/117 34/237/117 100/264/117
f 34/237/117 13/236/117 37/265/117
f 34/237/117 125/266/117 59/267/117
f 37/265/117 13/236/117 102/268/117
f 102/268/117 13/236/117 103/269/117
f 103/269/117 13/236/117 106/232/117
f 106/232/117 76/231/117 40/227/117
f 40/227/117 7/226/117 43/270/117
f 40/227/117 119/271/117 58/272/117
f 43/270/117 7/226/117 108/273/117
f 108/273/117 7/226/117 109/274/117
f 109/274/117 7/226/117 112/222/117
f 112/222/117 70/221/117 46/218/117
f 46/218/117 1/217/117 118/275/117
f 46/218/117 115/276/117 57/277/117
f 49/278/118 114/279/118 2/280/118
f 65/281/118 48/282/118 49/278/118
f 69/283/118 48/282/118 65/281/118
f 68/284/118 56/285/118 110/286/118
f 68/284/118 110/286/118 69/283/118
f 6/287/118 50/288/118 56/285/118
f 6/287/118 56/285/118 68/284/118
f 50/288/118 42/289/118 56/285/118
f 50/288/118 160/290/118 8/291/118
f 71/292/118 42/289/118 50/288/118
f 75/293/118 42/289/118 71/292/118
f 74/294/118 104/295/118 75/293/118
f 12/296/118 51/297/118 105/298/118
f 12/296/118 105/298/118 74/294/118
f 51/297/118 36/299/118 55/300/118
f 51/297/118 154/301/118 14/302/118
f 77/303/118 36/299/118 51/297/118
f 81/304/118 36/299/118 77/303/118
f 80/305/118 98/306/118 81/304/118
f 18/307/118 52/308/118 95/309/118
f 18/307/118 99/310/118 80/305/118
f 52/308/118 30/311/118 54/312/118
f 52/308/118 148/313/118 20/314/118
f 83/315/118 30/311/118 52/308/118
f 87/316/118 30/311/118 83/315/118
f 86/317/118 92/318/118 87/316/118
f 24/319/118 53/320/118 93/321/118
f 24/319/118 93/321/118 86/317/118
f 53/320/118 142/322/118 26/323/118
f 89/324/118 93/321/118 53/320/118
f 92/318/118 86/317/118 93/321/118
f 30/311/118 87/316/118 92/318/118
f 30/311/118 132/325/118 54/312/118
f 54/312/118 136/326/118 32/327/118
f 95/309/118 52/308/118 54/312/118
f 99/310/118 18/307/118 95/309/118
f 98/306/118 80/305/118 99/310/118
f 36/299/118 81/304/118 98/306/118
f 36/299/118 126/328/118 55/300/118
f 55/300/118 130/329/118 38/330/118
f 101/331/118 51/297/118 55/300/118
f 105/298/118 51/297/118 101/331/118
f 104/295/118 74/294/118 105/298/118
f 42/289/118 75/293/118 104/295/118
f 42/289/118 120/332/118 56/285/118
f 56/285/118 124/333/118 44/334/118
f 107/335/118 111/336/118 56/285/118
f 110/286/118 56/285/118 111/336/118
f 48/282/118 69/283/118 110/286/118
f 48/282/118 116/337/118 49/278/118
f 115/276/117 46/218/117 118/275/117
f 118/275/117 1/217/117 113/338/117
f 114/279/118 49/278/118 116/337/118
f 116/337/118 48/282/118 117/339/118
f 3/340/117 113/338/117 1/217/117
f 47/341/118 117/339/118 48/282/118
f 119/271/117 40/227/117 122/342/117
f 122/342/117 40/227/117 43/270/117
f 122/342/117 43/270/117 123/343/117
f 120/332/118 42/289/118 121/344/118
f 124/333/118 56/285/118 120/332/118
f 41/345/118 121/344/118 42/289/118
f 45/346/117 123/343/117 43/270/117
f 125/266/117 34/237/117 128/347/117
f 128/347/117 34/237/117 37/265/117
f 128/347/117 37/265/117 129/348/117
f 126/328/118 36/299/118 127/349/118
f 130/329/118 55/300/118 126/328/118
f 35/350/118 127/349/118 36/299/118
f 39/351/117 129/348/117 37/265/117
f 131/262/117 28/249/117 134/352/117
f 134/352/117 28/249/117 31/248/117
f 134/352/117 31/248/117 135/353/117
f 132/325/118 30/311/118 133/354/118
f 136/326/118 54/312/118 132/325/118
f 29/355/118 133/354/118 30/311/118
f 33/356/117 135/353/117 31/248/117
f 137/256/117 22/255/117 140/261/117
f 140/261/117 25/258/117 141/357/117
f 138/358/118 24/319/118 139/359/118
f 138/358/118 53/320/118 24/319/118
f 142/322/118 53/320/118 138/358/118
f 23/360/118 139/359/118 24/319/118
f 27/361/117 141/357/117 25/258/117
f 143/245/117 16/244/117 146/251/117
f 146/251/117 19/247/117 147/362/117
f 144/363/118 18/307/118 145/364/118
f 144/363/118 52/308/118 18/307/118
f 148/313/118 52/308/118 144/363/118
f 17/365/118 145/364/118 18/307/118
f 21/366/117 147/362/117 19/247/117
f 149/234/117 10/233/117 152/239/117
f 152/239/117 13/236/117 153/367/117
f 150/368/118 12/296/118 151/369/118
f 150/368/118 51/297/118 12/296/118
f 154/301/118 51/297/118 150/368/118
f 15/370/117 153/367/117 13/236/117
f 11/371/118 151/369/118 12/296/118
f 155/224/117 4/223/117 158/229/117
f 158/229/117 7/226/117 159/372/117
f 156/373/118 6/287/118 157/374/118
f 156/373/118 50/288/118 6/287/118
f 160/290/118 50/288/118 156/373/118
f 9/375/117 159/372/117 7/226/117
f 5/376/118 157/374/118 6/287/118
