# UnifiedToolkit Phase 16E-R14 review-only textured token prism
o Tractor_Beam_clipped_diamond
v -0.090000 0.090000 -1.131034
v 0.090000 0.090000 -1.131034
v 1.000000 0.090000 -0.101793
v 1.000000 0.090000 0.101793
v 0.090000 0.090000 1.131034
v -0.090000 0.090000 1.131034
v -1.000000 0.090000 0.101793
v -1.000000 0.090000 -0.101793
v -0.090000 -0.090000 -1.131034
v 0.090000 -0.090000 -1.131034
v 1.000000 -0.090000 -0.101793
v 1.000000 -0.090000 0.101793
v 0.090000 -0.090000 1.131034
v -0.090000 -0.090000 1.131034
v -1.000000 -0.090000 0.101793
v -1.000000 -0.090000 -0.101793
vt 0.466547619 0.128571429
vt 0.528690476 0.128571429
vt 0.842857143 0.483904762
vt 0.842857143 0.554190476
vt 0.528690476 0.909523810
vt 0.466547619 0.909523810
vt 0.152380952 0.554190476
vt 0.152380952 0.483904762
vt 0.466547619 0.909523810
vt 0.528690476 0.909523810
vt 0.842857143 0.554190476
vt 0.842857143 0.483904762
vt 0.528690476 0.128571429
vt 0.466547619 0.128571429
vt 0.152380952 0.483904762
vt 0.152380952 0.554190476
vt 0.495238095 0.826190476
vt 0.504761905 0.826190476
vt 0.504761905 0.816666667
vt 0.495238095 0.816666667
vt 0.495238095 0.826190476
vt 0.504761905 0.826190476
vt 0.504761905 0.816666667
vt 0.495238095 0.816666667
vt 0.495238095 0.826190476
vt 0.504761905 0.826190476
vt 0.504761905 0.816666667
vt 0.495238095 0.816666667
vt 0.495238095 0.826190476
vt 0.504761905 0.826190476
vt 0.504761905 0.816666667
vt 0.495238095 0.816666667
vt 0.495238095 0.826190476
vt 0.504761905 0.826190476
vt 0.504761905 0.816666667
vt 0.495238095 0.816666667
vt 0.495238095 0.826190476
vt 0.504761905 0.826190476
vt 0.504761905 0.816666667
vt 0.495238095 0.816666667
vt 0.495238095 0.826190476
vt 0.504761905 0.826190476
vt 0.504761905 0.816666667
vt 0.495238095 0.816666667
vt 0.495238095 0.826190476
vt 0.504761905 0.826190476
vt 0.504761905 0.816666667
vt 0.495238095 0.816666667
vn 0 1 0
vn 0 -1 0
vn 0.000000000 0 -1.000000000
vn 0.749170921 0 -0.662376729
vn 1.000000000 0 0.000000000
vn 0.749170921 0 0.662376729
vn 0.000000000 0 1.000000000
vn -0.749170921 0 0.662376729
vn -1.000000000 0 0.000000000
vn -0.749170921 0 -0.662376729
f 1/1/1 3/3/1 2/2/1
f 1/1/1 4/4/1 3/3/1
f 1/1/1 5/5/1 4/4/1
f 1/1/1 6/6/1 5/5/1
f 1/1/1 7/7/1 6/6/1
f 1/1/1 8/8/1 7/7/1
f 9/9/2 10/10/2 11/11/2
f 9/9/2 11/11/2 12/12/2
f 9/9/2 12/12/2 13/13/2
f 9/9/2 13/13/2 14/14/2
f 9/9/2 14/14/2 15/15/2
f 9/9/2 15/15/2 16/16/2
f 1/17/3 2/18/3 10/19/3 9/20/3
f 2/21/4 3/22/4 11/23/4 10/24/4
f 3/25/5 4/26/5 12/27/5 11/28/5
f 4/29/6 5/30/6 13/31/6 12/32/6
f 5/33/7 6/34/7 14/35/7 13/36/7
f 6/37/8 7/38/8 15/39/8 14/40/8
f 7/41/9 8/42/9 16/43/9 15/44/9
f 8/45/10 1/46/10 9/47/10 16/48/10
