# Blender v2.78 (sub 0) OBJ File: 'smallBase.blend'
# www.blender.org
mtllib smallBase.mtl
o small_base_Cube.002_small_base_Cube.002_auv
v -1.155937 -0.145255 1.155937
v -0.961315 0.072627 1.155937
v -0.961315 0.145255 1.155937
v -1.155937 0.145255 1.155937
v -1.155937 -0.145255 -0.000000
v -0.961315 0.245255 1.155937
v -0.760088 0.072627 1.155937
v -0.760088 0.145255 1.155937
v -1.155937 0.245255 1.155937
v -1.155937 0.145255 0.000000
v -0.961315 0.245255 0.000000
v -0.561715 -0.145255 1.155937
v -0.561715 -0.145255 1.225086
v -0.760088 -0.145255 1.155937
v -0.561715 0.145255 1.155937
v 0.000000 0.145255 0.000000
v -0.561715 0.145255 0.000000
v -0.961315 -0.145255 1.155937
v -1.155937 -0.145255 -1.155937
v -1.155937 0.145255 -1.155937
v -0.961315 0.245255 -1.155937
v -0.961315 0.145255 -1.155937
v -1.155937 0.245255 0.000000
v -1.155937 0.245255 -1.155937
v -0.961315 0.072627 -1.155937
v -0.961315 -0.145255 -1.155937
v -0.961315 -0.145255 -0.000000
v -0.760088 -0.145255 -1.155937
v -0.760088 -0.145255 -0.000000
v -0.961315 0.145255 0.000000
v -0.760088 0.145255 0.000000
v -0.561715 -0.145255 -0.000000
v -0.561715 -0.145255 -1.155937
v 0.000000 -0.145255 1.155937
v -0.561715 0.145255 -1.155937
v 0.000000 0.145255 -1.155937
v -0.760088 0.145255 -1.155937
v -0.561715 -0.145255 -1.225086
v 1.155937 0.145255 1.155937
v 0.961315 0.245255 1.155937
v 0.961315 0.145255 1.155937
v 1.155937 0.145255 0.000000
v 1.155937 0.245255 1.155937
v 0.000000 0.145255 1.155937
v 0.000000 0.072627 1.155937
v 0.561715 0.145255 1.155937
v 0.561715 -0.145255 -0.000000
v 0.561715 -0.145255 1.155937
v 0.561715 0.072627 1.155937
v 0.760088 0.145255 0.000000
v 0.760088 0.145255 1.155937
v 0.961315 0.072627 1.155937
v 1.155937 -0.145255 1.155937
v 0.961315 -0.145255 1.155937
v 1.155937 -0.145255 -0.000000
v 0.760088 -0.145255 1.155937
v 0.961315 0.245255 0.000000
v 0.760088 -0.145255 -0.000000
v 0.561715 0.145255 0.000000
v 0.760088 -0.145255 1.225086
v 0.561715 -0.145255 1.225086
v 1.155937 -0.145255 -1.155937
v 0.961315 0.072627 -1.155937
v 0.961315 0.145255 -1.155937
v 1.155937 0.145255 -1.155937
v 0.961315 -0.145255 -1.155937
v 0.000000 -0.145255 -1.155937
v 0.000000 -0.145255 -0.000000
v 0.961315 0.245255 -1.155937
v 0.760088 0.072627 -1.155937
v 0.760088 0.145255 -1.155937
v 0.961315 -0.145255 -0.000000
v 0.760088 -0.145255 -1.155937
v 0.961315 0.145255 0.000000
v 1.155937 0.245255 -1.155937
v 1.155937 0.245255 0.000000
v 0.561715 -0.145255 -1.155937
v 0.561715 -0.004745 -1.225086
v 0.561715 -0.145255 -1.225086
v 0.561715 0.145255 -1.155937
v 0.000000 0.072627 -1.155937
v 0.760088 -0.004745 -1.225086
v 0.760088 -0.004745 -1.155937
v -0.760088 -0.004745 1.155937
v -0.760088 -0.004745 1.225086
v -0.561715 -0.004745 1.155937
v -0.561715 -0.004745 -1.155937
v -0.760088 -0.004745 -1.225086
v -0.760088 -0.004745 -1.155937
v 0.561715 -0.004745 1.155937
v 0.760088 -0.004745 1.225086
v 0.760088 -0.004745 1.155937
v 0.561715 -0.004745 -1.155937
v -0.572547 -0.145255 1.265512
v -0.642566 -0.145255 1.305937
v -0.642566 -0.004745 1.305937
v -0.679237 -0.145255 1.305937
v -0.602140 -0.004745 1.295105
v -0.602140 -0.145255 1.295105
v -0.760088 -0.145255 1.225086
v -0.719663 -0.145255 1.295105
v -0.749256 -0.145255 1.265512
v -0.719663 -0.004745 1.295105
v -0.749256 -0.004745 1.265512
v -0.679237 -0.145255 -1.305937
v -0.642565 -0.145255 -1.305937
v -0.602140 -0.145255 -1.295105
v -0.572547 -0.145255 -1.265512
v -0.602140 -0.004745 -1.295105
v -0.572547 -0.004745 -1.265512
v -0.561715 -0.004745 -1.225086
v -0.760088 -0.145255 -1.225086
v -0.749256 -0.145255 -1.265512
v -0.679237 -0.004745 -1.305937
v -0.642565 -0.004745 -1.305937
v -0.749256 -0.004745 -1.265512
v -0.719662 -0.004745 -1.295105
v -0.719662 -0.145255 -1.295105
v 0.642565 -0.145255 1.305937
v 0.602140 -0.004745 1.295105
v 0.602140 -0.145255 1.295105
v 0.679237 -0.145255 1.305937
v 0.572547 -0.004745 1.265512
v 0.572547 -0.145255 1.265512
v 0.561715 -0.004745 1.225086
v 0.679237 -0.004745 1.305937
v 0.642565 -0.004745 1.305937
v 0.749256 -0.145255 1.265512
v 0.719662 -0.145255 1.295105
v 0.749256 -0.004745 1.265512
v 0.719662 -0.004745 1.295105
v 0.760088 -0.145255 -1.225086
v 0.572547 -0.004745 -1.265512
v 0.572547 -0.145255 -1.265512
v 0.642566 -0.145255 -1.305937
v 0.679237 -0.145255 -1.305937
v 0.602140 -0.145255 -1.295105
v 0.719663 -0.145255 -1.295105
v 0.749256 -0.145255 -1.265512
v -0.561715 -0.004745 1.225086
v -0.572547 -0.004745 1.265512
v -0.679237 -0.004745 1.305937
v 0.642566 -0.004745 -1.305937
v 0.679237 -0.004745 -1.305937
v 0.602140 -0.004745 -1.295105
v 0.749256 -0.004745 -1.265512
v 0.719663 -0.004745 -1.295105
v -0.561715 0.072627 1.155937
v 0.760088 0.072627 1.155937
v 0.561715 0.072627 -1.155937
v -0.561715 0.072627 -1.155937
v -0.760088 0.072627 -1.155937
v 0.080100 -0.033696 0.033179
v 0.061306 -0.033696 0.061306
v 0.033179 -0.033696 0.080100
v 0.000000 -0.033696 0.086700
v -0.033179 -0.033696 0.080100
v -0.061306 -0.033696 0.061306
v -0.080100 -0.033696 0.033179
v -0.086700 -0.033696 -0.000000
v -0.080100 -0.033696 -0.033179
v -0.061306 -0.033696 -0.061306
v -0.033179 -0.033696 -0.080100
v -0.000000 -0.033696 -0.086700
v 0.033179 -0.033696 -0.080100
v 0.061306 -0.033696 -0.061306
v 0.080100 -0.033696 -0.033179
v 0.086700 -0.033696 -0.000000
vt 0.8600 0.5021
vt 0.8127 0.5439
vt 0.7970 0.5439
vt 0.5081 0.7500
vt 0.5081 0.5021
vt 0.5711 0.5021
vt 0.7753 0.5439
vt 0.7970 0.5021
vt 0.8127 0.5870
vt 0.7970 0.5870
vt 0.5928 0.5021
vt 0.5711 0.7500
vt 0.9066 0.5021
vt 0.9066 0.7500
vt 0.8644 0.5021
vt 0.3748 0.0343
vt 0.3748 0.0195
vt 0.4179 0.0343
vt 0.5948 0.0021
vt 0.7167 0.2500
vt 0.5948 0.2500
vt 0.8600 0.5870
vt 0.8600 0.5439
vt 0.5081 0.9979
vt 0.5711 0.9979
vt 0.6189 0.9979
vt 0.5972 0.9561
vt 0.6189 0.9561
vt 0.5928 0.7500
vt 0.5928 0.9979
vt 0.6346 0.9561
vt 0.6819 0.9979
vt 0.4615 0.5300
vt 0.4615 0.2822
vt 0.5038 0.2822
vt 0.6819 0.9561
vt 0.6819 0.9130
vt 0.4179 0.2822
vt 0.9109 0.7500
vt 0.9326 0.7500
vt 0.9109 0.9979
vt 0.5081 0.2500
vt 0.5518 0.2500
vt 0.5081 0.4979
vt 0.8644 0.9979
vt 0.9066 0.9979
vt 0.3748 0.2822
vt 0.3748 0.5300
vt 0.2530 0.0343
vt 0.5948 0.4979
vt 0.7167 0.4979
vt 0.5518 0.4979
vt 0.4179 0.5300
vt 0.3748 0.5448
vt 0.7970 0.9979
vt 0.7753 0.9561
vt 0.7970 0.9561
vt 0.7493 0.9979
vt 0.7493 0.7500
vt 0.7709 0.9979
vt 0.7970 0.7500
vt 0.8127 0.7500
vt 0.7970 0.8704
vt 0.1311 0.2822
vt 0.1311 0.0343
vt 0.8600 0.7500
vt 0.8127 0.8704
vt 0.9252 0.0021
vt 0.8816 0.2500
vt 0.8816 0.0021
vt 0.8127 0.9561
vt 0.8600 0.9979
vt 0.0444 0.0343
vt 0.0022 0.2822
vt 0.0022 0.0343
vt 0.8600 0.9561
vt 0.8600 0.9130
vt 0.9296 0.4979
vt 0.9718 0.2500
vt 0.9718 0.4979
vt 0.0881 0.2822
vt 0.0881 0.0343
vt 0.8385 0.2500
vt 0.8385 0.0021
vt 0.0881 0.0195
vt 0.1311 0.0195
vt 0.6819 0.5021
vt 0.6346 0.5439
vt 0.6189 0.5439
vt 0.6862 0.7500
vt 0.7493 0.5021
vt 0.0444 0.5300
vt 0.0022 0.5300
vt 0.2530 0.5300
vt 0.2530 0.2822
vt 0.5972 0.5439
vt 0.6189 0.5021
vt 0.6346 0.5870
vt 0.6189 0.5870
vt 0.0444 0.2822
vt 0.0881 0.5300
vt 0.9761 0.2500
vt 0.9978 0.2500
vt 0.9761 0.4979
vt 0.9296 0.0021
vt 0.9296 0.2500
vt 0.4289 0.5966
vt 0.4439 0.5665
vt 0.4439 0.5966
vt 0.8385 0.4979
vt 0.8816 0.4979
vt 0.6189 0.6296
vt 0.6346 0.7500
vt 0.6189 0.7500
vt 0.1311 0.5300
vt 0.3516 0.6009
vt 0.3666 0.6310
vt 0.3516 0.6310
vt 0.6819 0.5870
vt 0.0022 0.5665
vt 0.0172 0.5665
vt 0.0022 0.6090
vt 0.1128 0.5665
vt 0.1278 0.6090
vt 0.1128 0.6090
vt 0.0759 0.5665
vt 0.0909 0.6090
vt 0.0759 0.6090
vt 0.0391 0.6090
vt 0.0541 0.5665
vt 0.0541 0.6090
vt 0.6514 0.6296
vt 0.6514 0.5870
vt 0.3772 0.0108
vt 0.3924 0.0021
vt 0.4157 0.5665
vt 0.4157 0.5966
vt 0.4078 0.5665
vt 0.3364 0.5665
vt 0.3299 0.5966
vt 0.3299 0.5665
vt 0.4003 0.0021
vt 0.4179 0.0195
vt 0.3797 0.5966
vt 0.3797 0.5665
vt 0.3947 0.5966
vt 0.4091 0.0045
vt 0.4155 0.0108
vt 0.3645 0.5966
vt 0.3645 0.5665
vt 0.3709 0.5665
vt 0.3709 0.5966
vt 0.4003 0.5622
vt 0.3924 0.5622
vt 0.3836 0.5599
vt 0.3772 0.5535
vt 0.2258 0.5980
vt 0.2563 0.5980
vt 0.2563 0.6044
vt 0.4807 0.5665
vt 0.4720 0.5966
vt 0.4720 0.5665
vt 0.4179 0.5448
vt 0.4155 0.5535
vt 0.2258 0.5815
vt 0.2563 0.5815
vt 0.2563 0.5893
vt 0.2258 0.5665
vt 0.2562 0.5665
vt 0.2562 0.5728
vt 0.2258 0.5728
vt 0.2606 0.5893
vt 0.2911 0.5980
vt 0.2606 0.5980
vt 0.1056 0.0021
vt 0.1136 0.0021
vt 0.2954 0.5966
vt 0.3018 0.5665
vt 0.3018 0.5966
vt 0.3106 0.5665
vt 0.3106 0.5966
vt 0.2606 0.5815
vt 0.2911 0.5815
vt 0.2911 0.5893
vt 0.0904 0.0108
vt 0.0968 0.0045
vt 0.2606 0.5665
vt 0.2911 0.5665
vt 0.2911 0.5728
vt 0.2606 0.5728
vt 0.1311 0.5448
vt 0.0881 0.5448
vt 0.4526 0.5665
vt 0.4526 0.5966
vt 0.1136 0.5622
vt 0.1056 0.5622
vt 0.1287 0.5535
vt 0.1223 0.5599
vt 0.0968 0.5599
vt 0.0904 0.5535
vt 0.3754 0.6009
vt 0.3666 0.6009
vt 0.3451 0.5966
vt 0.3364 0.5966
vt 0.3451 0.5665
vt 0.0324 0.6003
vt 0.0259 0.6067
vt 0.0347 0.5917
vt 0.0347 0.5838
vt 0.4078 0.5966
vt 0.3990 0.5966
vt 0.1278 0.5665
vt 0.1366 0.5688
vt 0.1454 0.5838
vt 0.2258 0.5893
vt 0.3104 0.6009
vt 0.3192 0.6009
vt 0.3104 0.6310
vt 0.0909 0.5665
vt 0.0997 0.5688
vt 0.1085 0.5838
vt 0.3323 0.6310
vt 0.3235 0.6310
vt 0.3323 0.6009
vt 0.2214 0.5815
vt 0.2214 0.5893
vt 0.1909 0.5893
vt 0.0692 0.6003
vt 0.0628 0.6067
vt 0.0716 0.5917
vt 0.0628 0.5688
vt 0.0692 0.5751
vt 0.8127 0.6296
vt 0.7970 0.6296
vt 0.8127 0.9130
vt 0.7970 0.9130
vt 0.6346 0.6296
vt 0.6346 0.8704
vt 0.6189 0.8704
vt 0.6819 0.7500
vt 0.6346 0.9130
vt 0.6189 0.9130
vt 0.5038 0.0343
vt 0.4615 0.0343
vt 0.7753 0.5021
vt 0.9326 0.9979
vt 0.3601 0.5665
vt 0.5518 0.0021
vt 0.5081 0.0021
vt 0.8644 0.7500
vt 0.9326 0.5021
vt 0.9109 0.5021
vt 0.6862 0.9979
vt 0.9761 0.0021
vt 0.7753 0.9979
vt 0.3256 0.5966
vt 0.3256 0.5665
vt 0.8600 0.8704
vt 0.3473 0.6009
vt 0.6862 0.5021
vt 0.7709 0.5021
vt 0.7709 0.7500
vt 0.9252 0.4979
vt 0.9252 0.2500
vt 0.9718 0.0021
vt 0.6819 0.5439
vt 0.0172 0.6090
vt 0.8295 0.9130
vt 0.8295 0.8704
vt 0.0391 0.5665
vt 0.4245 0.5665
vt 0.3990 0.5665
vt 0.4570 0.5966
vt 0.4807 0.5966
vt 0.3192 0.6310
vt 0.1287 0.0108
vt 0.1909 0.5665
vt 0.2214 0.5728
vt 0.1909 0.5728
vt 0.1909 0.5815
vt 0.1909 0.5980
vt 0.2214 0.5980
vt 0.2214 0.6044
vt 0.3754 0.6310
vt 0.0324 0.5751
vt 0.1430 0.5751
vt 0.1454 0.5917
vt 0.1430 0.6003
vt 0.1061 0.5751
vt 0.1085 0.5917
vt 0.1061 0.6003
vt 0.0716 0.5838
vt 0.5038 0.5300
vt 0.5972 0.9979
vt 0.8600 0.6296
vt 0.9978 0.0021
vt 0.7167 0.0021
vt 0.5972 0.5021
vt 0.6819 0.6296
vt 0.9978 0.4979
vt 0.3601 0.5966
vt 0.8295 0.6296
vt 0.2954 0.6009
vt 0.2954 0.6310
vt 0.6514 0.9130
vt 0.4289 0.5665
vt 0.3836 0.0045
vt 0.4245 0.5966
vt 0.2258 0.6044
vt 0.4091 0.5599
vt 0.1223 0.0045
vt 0.2954 0.5665
vt 0.3235 0.6009
vt 0.2214 0.5665
vt 0.1909 0.6044
vt 0.0259 0.5688
vt 0.1366 0.6067
vt 0.0997 0.6067
vt 0.3947 0.5665
vt 0.4570 0.5665
vt 0.6819 0.8704
vt 0.8295 0.5870
vt 0.6514 0.8704
vt 0.3473 0.6310
vt 0.1497 0.5883
vt 0.1497 0.5811
vt 0.1525 0.5744
vt 0.1577 0.5692
vt 0.1645 0.5665
vt 0.1718 0.5665
vt 0.1786 0.5692
vt 0.1838 0.5744
vt 0.1866 0.5811
vt 0.1866 0.5883
vt 0.1838 0.5950
vt 0.1786 0.6002
vt 0.1718 0.6029
vt 0.1645 0.6029
vt 0.1577 0.6002
vt 0.1525 0.5950
vn 0.0000 0.0000 1.0000
vn -1.0000 0.0000 0.0000
vn 0.0000 1.0000 0.0000
vn 0.0000 -1.0000 0.0000
vn 0.0000 0.0000 -1.0000
vn 1.0000 0.0000 0.0000
vn 0.7071 0.0000 0.7071
vn -0.7071 0.0000 0.7071
vn -0.9659 0.0000 0.2588
vn 0.7071 0.0000 -0.7071
vn 0.9659 0.0000 -0.2588
vn -0.7071 0.0000 -0.7071
vn -0.2588 0.0000 -0.9659
vn -0.2588 0.0000 0.9659
vn 0.2588 0.0000 0.9659
vn -0.9659 0.0000 -0.2588
vn 0.9659 0.0000 0.2588
vn 0.2588 0.0000 -0.9659
usemtl small_base_Cube.002_auv
s off
f 1/1/1 2/2/1 3/3/1
f 5/4/2 1/5/2 4/6/2
f 3/3/1 6/7/1 4/8/1
f 3/3/1 7/9/1 8/10/1
f 9/11/2 10/12/2 4/6/2
f 6/13/3 11/14/3 9/15/3
f 12/16/4 13/17/4 14/18/4
f 15/19/3 16/20/3 17/21/3
f 14/22/1 2/2/1 18/23/1
f 19/24/2 5/4/2 20/25/2
f 20/26/5 21/27/5 22/28/5
f 10/12/2 23/29/2 24/30/2
f 22/28/5 25/31/5 19/32/5
f 26/33/4 27/34/4 5/35/4
f 26/36/5 25/31/5 28/37/5
f 27/34/4 29/38/4 14/18/4
f 30/39/6 11/40/6 3/41/6
f 30/42/3 31/43/3 22/44/3
f 24/45/3 11/14/3 21/46/3
f 32/47/4 29/38/4 33/48/4
f 32/47/4 34/49/4 12/16/4
f 35/50/3 16/20/3 36/51/3
f 37/52/3 31/43/3 17/21/3
f 28/53/4 38/54/4 33/48/4
f 39/55/1 40/56/1 41/57/1
f 39/58/6 42/59/6 43/60/6
f 44/61/1 45/62/1 46/63/1
f 34/49/4 47/64/4 48/65/4
f 34/66/1 49/67/1 45/62/1
f 41/68/3 50/69/3 51/70/3
f 41/57/1 52/71/1 53/72/1
f 54/73/4 55/74/4 53/75/4
f 54/76/1 52/71/1 56/77/1
f 43/78/3 57/79/3 40/80/3
f 48/65/4 58/81/4 56/82/4
f 51/70/3 59/83/3 46/84/3
f 56/82/4 60/85/4 61/86/4
f 62/87/5 63/88/5 64/89/5
f 42/59/6 55/90/6 65/91/6
f 55/74/4 66/92/4 62/93/4
f 67/94/4 47/64/4 68/95/4
f 64/89/5 69/96/5 65/97/5
f 64/89/5 70/98/5 71/99/5
f 72/100/4 73/101/4 66/92/4
f 74/102/2 57/103/2 64/104/2
f 75/105/3 57/79/3 76/106/3
f 77/107/2 78/108/2 79/109/2
f 59/83/3 80/110/3 16/20/3
f 59/83/3 50/69/3 71/111/3
f 80/112/5 81/113/5 36/114/5
f 73/101/4 58/81/4 77/115/4
f 73/116/6 82/117/6 83/118/6
f 73/119/5 70/98/5 63/88/5
f 84/120/3 85/121/3 86/122/3
f 87/123/3 88/124/3 89/125/3
f 90/126/3 91/127/3 92/128/3
f 93/129/3 82/130/3 78/131/3
f 93/132/5 70/98/5 83/133/5
f 13/17/4 94/134/4 95/135/4
f 95/136/1 96/137/1 97/138/1
f 94/139/7 98/140/7 99/141/7
f 97/142/4 100/143/4 13/17/4
f 100/144/2 85/145/2 14/146/2
f 101/147/4 102/148/4 97/142/4
f 101/149/8 103/150/8 104/151/8
f 102/152/9 104/151/9 85/145/9
f 38/54/4 105/153/4 106/154/4
f 107/155/4 108/156/4 106/154/4
f 107/157/10 109/158/10 110/159/10
f 108/160/11 111/161/11 38/162/11
f 112/163/4 113/164/4 105/153/4
f 105/165/5 114/166/5 115/167/5
f 113/168/12 116/169/12 117/170/12
f 118/171/13 117/170/13 114/166/13
f 119/172/14 120/173/14 121/174/14
f 61/86/4 122/175/4 119/176/4
f 121/177/8 123/178/8 124/179/8
f 124/179/9 125/180/9 61/181/9
f 122/182/1 126/183/1 127/184/1
f 128/185/4 129/186/4 122/175/4
f 128/187/7 130/188/7 131/189/7
f 129/190/15 131/189/15 126/183/15
f 79/191/4 132/192/4 73/101/4
f 79/109/16 133/193/16 134/194/16
f 135/195/4 136/196/4 79/191/4
f 134/197/4 137/198/4 135/195/4
f 138/199/4 139/200/4 136/196/4
f 139/201/11 82/117/11 132/202/11
f 140/203/17 141/204/17 13/205/17
f 98/206/3 141/207/3 96/208/3
f 85/121/3 142/209/3 96/208/3
f 142/210/14 103/211/14 97/138/14
f 111/212/3 110/213/3 115/214/3
f 115/167/18 109/158/18 106/215/18
f 88/216/16 116/217/16 112/218/16
f 125/219/3 123/220/3 127/221/3
f 91/222/17 130/223/17 60/224/17
f 143/225/5 144/226/5 136/227/5
f 145/228/3 133/229/3 143/230/3
f 146/231/3 147/232/3 82/130/3
f 7/9/1 148/233/1 15/234/1
f 49/67/1 149/235/1 51/236/1
f 70/98/5 150/237/5 80/112/5
f 81/113/5 151/238/5 35/239/5
f 81/113/5 150/237/5 67/240/5
f 151/238/5 152/241/5 37/242/5
f 1/1/1 3/3/1 4/8/1
f 1/243/4 5/35/4 18/244/4
f 4/8/1 6/7/1 9/245/1
f 3/41/6 11/40/6 6/246/6
f 18/244/4 27/34/4 14/18/4
f 9/11/2 23/29/2 10/12/2
f 12/247/6 140/203/6 13/205/6
f 15/234/1 45/62/1 44/61/1
f 8/248/3 31/43/3 3/249/3
f 8/10/1 7/9/1 15/234/1
f 14/18/4 29/38/4 12/16/4
f 19/32/5 25/31/5 26/36/5
f 20/26/5 22/28/5 19/32/5
f 10/12/2 5/4/2 4/6/2
f 10/12/2 24/30/2 20/25/2
f 22/44/3 31/43/3 37/52/3
f 22/28/5 152/241/5 25/31/5
f 26/33/4 28/53/4 27/34/4
f 23/250/3 11/14/3 24/45/3
f 21/251/6 11/40/6 22/252/6
f 33/48/4 29/38/4 28/53/4
f 17/21/3 16/20/3 35/50/3
f 35/239/5 151/238/5 37/242/5
f 28/53/4 112/163/4 38/54/4
f 53/253/6 55/90/6 39/58/6
f 53/72/1 52/71/1 54/76/1
f 41/254/2 57/103/2 74/102/2
f 43/255/1 40/56/1 39/55/1
f 48/256/2 125/180/2 90/257/2
f 48/258/1 49/67/1 34/66/1
f 46/84/3 59/83/3 16/20/3
f 46/63/1 49/67/1 51/236/1
f 51/70/3 50/69/3 59/83/3
f 51/236/1 149/235/1 41/57/1
f 56/82/4 72/100/4 54/73/4
f 56/82/4 61/86/4 48/65/4
f 56/259/6 91/222/6 60/224/6
f 65/91/6 55/90/6 62/260/6
f 65/91/6 75/261/6 42/59/6
f 42/59/6 76/262/6 43/60/6
f 55/74/4 72/100/4 66/92/4
f 36/114/5 81/113/5 35/239/5
f 67/94/4 68/95/4 32/47/4
f 67/240/5 151/238/5 81/113/5
f 68/95/4 47/64/4 34/49/4
f 16/20/3 80/110/3 36/51/3
f 64/263/3 50/69/3 74/264/3
f 72/100/4 58/81/4 73/101/4
f 69/265/3 57/79/3 75/105/3
f 77/115/4 47/64/4 67/94/4
f 77/115/4 79/191/4 73/101/4
f 47/64/4 58/81/4 48/65/4
f 80/112/5 150/237/5 81/113/5
f 71/99/5 70/98/5 80/112/5
f 73/119/5 63/88/5 66/266/5
f 86/122/3 85/121/3 140/267/3
f 92/268/1 49/67/1 90/269/1
f 83/270/3 82/130/3 93/129/3
f 13/17/4 100/143/4 14/18/4
f 13/205/17 141/204/17 94/139/17
f 95/135/4 97/142/4 13/17/4
f 99/271/15 96/137/15 95/136/15
f 97/138/14 103/211/14 101/272/14
f 101/149/8 104/151/8 102/152/8
f 102/152/9 85/145/9 100/144/9
f 106/154/4 108/156/4 38/54/4
f 106/215/18 109/158/18 107/157/18
f 38/162/6 111/161/6 87/273/6
f 108/160/11 110/274/11 111/161/11
f 112/218/16 116/217/16 113/275/16
f 105/165/5 115/167/5 106/215/5
f 113/168/12 117/170/12 118/171/12
f 118/171/13 114/166/13 105/165/13
f 119/176/4 124/276/4 61/86/4
f 124/179/9 123/178/9 125/180/9
f 60/85/4 128/185/4 122/175/4
f 122/182/1 127/184/1 119/172/1
f 128/187/7 131/189/7 129/190/7
f 129/190/15 126/183/15 122/182/15
f 79/191/4 134/197/4 135/195/4
f 134/277/12 145/278/12 137/279/12
f 137/279/13 143/225/13 135/280/13
f 136/196/4 139/200/4 132/192/4
f 132/202/6 82/117/6 73/116/6
f 138/281/10 147/282/10 146/283/10
f 139/201/11 146/284/11 82/117/11
f 96/208/3 141/207/3 140/267/3
f 96/137/1 142/210/1 97/138/1
f 85/121/3 103/285/3 142/209/3
f 115/214/3 88/124/3 111/212/3
f 110/213/3 109/286/3 115/214/3
f 114/287/3 117/288/3 88/124/3
f 127/221/3 91/127/3 125/219/3
f 123/220/3 120/289/3 127/221/3
f 126/290/3 131/291/3 91/127/3
f 78/108/16 133/193/16 79/109/16
f 78/131/3 82/130/3 143/230/3
f 82/130/3 147/232/3 144/292/3
f 2/2/1 7/9/1 3/3/1
f 45/62/1 148/233/1 34/66/1
f 63/88/5 70/98/5 64/89/5
f 3/249/3 31/43/3 30/42/3
f 2/2/1 1/1/1 18/23/1
f 9/15/3 11/14/3 23/250/3
f 12/16/4 29/38/4 32/47/4
f 15/19/3 17/21/3 8/248/3
f 15/234/1 148/233/1 45/62/1
f 19/293/4 26/33/4 5/35/4
f 20/25/2 5/4/2 10/12/2
f 5/35/4 27/34/4 18/244/4
f 22/252/6 11/40/6 30/39/6
f 24/294/5 21/27/5 20/26/5
f 33/48/4 67/94/4 32/47/4
f 32/47/4 68/95/4 34/49/4
f 35/50/3 37/52/3 17/21/3
f 37/242/5 152/241/5 22/28/5
f 28/53/4 29/38/4 27/34/4
f 39/55/1 41/57/1 53/72/1
f 39/58/6 55/90/6 42/59/6
f 34/66/1 148/233/1 12/295/1
f 41/57/1 149/235/1 52/71/1
f 54/73/4 72/100/4 55/74/4
f 40/296/2 57/103/2 41/254/2
f 46/84/3 16/20/3 44/297/3
f 56/82/4 58/81/4 72/100/4
f 62/87/5 64/89/5 65/97/5
f 65/97/5 69/96/5 75/298/5
f 67/240/5 150/237/5 77/299/5
f 64/104/2 57/103/2 69/300/2
f 66/266/5 63/88/5 62/87/5
f 74/264/3 50/69/3 41/68/3
f 75/261/6 76/262/6 42/59/6
f 76/106/3 57/79/3 43/78/3
f 77/115/4 58/81/4 47/64/4
f 59/83/3 71/111/3 80/110/3
f 71/111/3 50/69/3 64/263/3
f 86/301/6 140/203/6 12/247/6
f 86/302/1 148/233/1 7/9/1
f 89/303/2 88/216/2 28/304/2
f 89/305/5 152/241/5 151/238/5
f 93/306/2 78/108/2 77/107/2
f 93/132/5 150/237/5 70/98/5
f 94/134/4 99/307/4 95/135/4
f 94/139/7 141/204/7 98/140/7
f 99/271/15 98/308/15 96/137/15
f 97/142/4 102/148/4 100/143/4
f 107/157/10 110/159/10 108/309/10
f 112/163/4 105/153/4 38/54/4
f 113/164/4 118/310/4 105/153/4
f 61/181/2 125/180/2 48/256/2
f 121/311/4 124/276/4 119/176/4
f 121/177/8 120/312/8 123/178/8
f 60/85/4 122/175/4 61/86/4
f 60/224/17 130/223/17 128/313/17
f 135/280/5 143/225/5 136/227/5
f 134/277/12 133/314/12 145/278/12
f 137/279/13 145/278/13 143/225/13
f 136/196/4 132/192/4 79/191/4
f 138/281/10 146/283/10 139/315/10
f 140/267/3 85/121/3 96/208/3
f 104/316/3 103/285/3 85/121/3
f 111/212/3 88/124/3 87/123/3
f 114/287/3 88/124/3 115/214/3
f 117/288/3 116/317/3 88/124/3
f 125/219/3 91/127/3 90/126/3
f 127/184/14 120/173/14 119/172/14
f 126/290/3 91/127/3 127/221/3
f 131/291/3 130/318/3 91/127/3
f 143/230/3 133/229/3 78/131/3
f 82/130/3 144/292/3 143/230/3
f 144/226/18 147/282/18 136/227/18
f 45/62/1 49/67/1 46/63/1
f 25/31/5 152/241/5 28/37/5
f 14/146/2 85/145/2 84/319/2
f 14/22/1 7/9/1 2/2/1
f 33/320/6 38/162/6 87/273/6
f 33/321/5 151/238/5 67/240/5
f 17/21/3 31/43/3 8/248/3
f 28/304/2 88/216/2 112/218/2
f 44/297/3 16/20/3 15/19/3
f 86/302/1 7/9/1 84/322/1
f 89/305/5 151/238/5 87/323/5
f 92/324/6 91/222/6 56/259/6
f 92/268/1 149/235/1 49/67/1
f 136/227/18 147/282/18 138/281/18
f 52/71/1 149/235/1 56/77/1
f 155/325/4 156/326/4 157/327/4 158/328/4 159/329/4 160/330/4 161/331/4 162/332/4 163/333/4 164/334/4 165/335/4 166/336/4 167/337/4 168/338/4 153/339/4 154/340/4
